<?xml version="1.0" encoding="UTF-8" standalone="no"?>
<!-- Created with Inkscape (http://www.inkscape.org/) -->

<svg
   width="325.59433"
   height="426.34927"
   viewBox="0 0 86.14683 112.80491"
   version="1.1"
   id="svg5"
   inkscape:version="1.1 (c68e22c387, 2021-05-23)"
   sodipodi:docname="sina-tu-li-pali-taso-lon-wile-sina.svg"
   xmlns:inkscape="http://www.inkscape.org/namespaces/inkscape"
   xmlns:sodipodi="http://sodipodi.sourceforge.net/DTD/sodipodi-0.dtd"
   xmlns="http://www.w3.org/2000/svg"
   xmlns:svg="http://www.w3.org/2000/svg">
  <sodipodi:namedview
     id="namedview7"
     pagecolor="#000000"
     bordercolor="#999999"
     borderopacity="1"
     inkscape:pageshadow="0"
     inkscape:pageopacity="0"
     inkscape:pagecheckerboard="true"
     inkscape:document-units="mm"
     showgrid="false"
     units="px"
     inkscape:snap-global="true"
     inkscape:zoom="1.7033258"
     inkscape:cx="216.92855"
     inkscape:cy="242.76037"
     inkscape:window-width="1854"
     inkscape:window-height="1056"
     inkscape:window-x="58"
     inkscape:window-y="440"
     inkscape:window-maximized="1"
     inkscape:current-layer="layer1"
     inkscape:snap-grids="true"
     inkscape:snap-intersection-paths="false"
     inkscape:object-paths="true"
     inkscape:snap-page="true"
     inkscape:snap-bbox="true"
     inkscape:bbox-paths="false" />
  <defs
     id="defs2">
    <inkscape:path-effect
       effect="bspline"
       id="path-effect12425"
       is_visible="true"
       lpeversion="1"
       weight="33.333333"
       steps="2"
       helper_size="0"
       apply_no_weight="true"
       apply_with_weight="true"
       only_selected="false" />
  </defs>
  <g
     inkscape:label="Layer 1"
     inkscape:groupmode="layer"
     id="layer1"
     transform="translate(-4.661533,-46.077667)">
    <path
       style="font-variation-settings:normal;opacity:1;vector-effect:none;fill:none;fill-opacity:1;stroke:#ffffff;stroke-width:0.264583px;stroke-linecap:butt;stroke-linejoin:miter;stroke-miterlimit:4;stroke-dasharray:none;stroke-dashoffset:0;stroke-opacity:1;-inkscape-stroke:none;stop-color:#000000;stop-opacity:1"
       d="m 4.8153343,158.59537 c 0.3883334,-2.56301 1.601088,-2.87282 2.0193339,-2.87367 l 76.8900148,-0.15603 c 2.216207,-0.005 2.640668,3.18433 2.640668,3.18433 z"
       id="path3393"
       sodipodi:nodetypes="csscc" />
    <path
       style="font-variation-settings:normal;opacity:1;vector-effect:none;fill:none;fill-opacity:1;stroke:#ffffff;stroke-width:0.264583px;stroke-linecap:butt;stroke-linejoin:miter;stroke-miterlimit:4;stroke-dasharray:none;stroke-dashoffset:0;stroke-opacity:1;-inkscape-stroke:none;stop-color:#000000;stop-opacity:1"
       d="m 10.104335,155.70678 c 0,0 -2.0312951,-0.1772 -2.0312951,-1.66 0,-1.4828 -0.1647561,-27.73391 -0.1647561,-27.73391 0,0 -0.8237796,-5.27219 5.0525152,-5.27219 5.107433,0 4.558247,7.08451 4.558247,7.08451 -0.08403,-1.34441 1.532034,-6.82194 5.931212,-6.91975 5.052514,-0.11234 4.668084,7.24926 4.668084,7.24926 1.107307,-8.48184 10.481288,-7.27251 16.640349,-6.20581 l -0.549589,33.30231"
       id="path7003"
       sodipodi:nodetypes="cscscsccc" />
    <ellipse
       style="fill:none;fill-rule:evenodd;stroke:#ffffff;stroke-width:0.224099;stroke-linecap:round;paint-order:stroke fill markers;stop-color:#000000"
       id="path7858"
       cx="16.805105"
       cy="136.11584"
       rx="5.621943"
       ry="5.2649722" />
    <path
       style="font-variation-settings:normal;opacity:1;vector-effect:none;fill:none;fill-opacity:1;stroke:#ffffff;stroke-width:0.264583px;stroke-linecap:butt;stroke-linejoin:miter;stroke-miterlimit:4;stroke-dasharray:none;stroke-dashoffset:0;stroke-opacity:1;-inkscape-stroke:none;stop-color:#000000;stop-opacity:1"
       d="m 24.933062,146.19342 c 0.164756,2.85577 3.899224,6.31564 3.899224,6.31564"
       id="path7973" />
    <path
       style="font-variation-settings:normal;opacity:1;vector-effect:none;fill:none;fill-opacity:1;stroke:#ffffff;stroke-width:0.264583px;stroke-linecap:butt;stroke-linejoin:miter;stroke-miterlimit:4;stroke-dasharray:none;stroke-dashoffset:0;stroke-opacity:1;-inkscape-stroke:none;stop-color:#000000;stop-opacity:1"
       d="m 29.216715,144.93029 c 0.549187,2.25166 3.404957,6.26072 3.404957,6.26072"
       id="path7975" />
    <path
       style="font-variation-settings:normal;opacity:1;vector-effect:none;fill:none;fill-opacity:1;stroke:#ffffff;stroke-width:0.264583px;stroke-linecap:butt;stroke-linejoin:miter;stroke-miterlimit:4;stroke-dasharray:none;stroke-dashoffset:0;stroke-opacity:1;-inkscape-stroke:none;stop-color:#000000;stop-opacity:1"
       d="m 33.11594,144.21635 c 0.823778,3.07544 3.350035,5.71153 3.350035,5.71153"
       id="path7977" />
    <path
       style="font-variation-settings:normal;opacity:1;vector-effect:none;fill:none;fill-opacity:1;stroke:#ffffff;stroke-width:0.264583px;stroke-linecap:butt;stroke-linejoin:miter;stroke-miterlimit:4;stroke-dasharray:none;stroke-dashoffset:0;stroke-opacity:1;-inkscape-stroke:none;stop-color:#000000;stop-opacity:1"
       d="m 44.209102,155.5512 c 0.659426,-35.22446 16.310754,-33.35723 19.441601,-33.35723 4.773003,0 15.642439,1.79365 16.749027,33.19212"
       id="path7989"
       sodipodi:nodetypes="csc" />
    <path
       style="font-variation-settings:normal;opacity:1;vector-effect:none;fill:none;fill-opacity:1;stroke:#ffffff;stroke-width:0.264583px;stroke-linecap:butt;stroke-linejoin:miter;stroke-miterlimit:4;stroke-dasharray:none;stroke-dashoffset:0;stroke-opacity:1;-inkscape-stroke:none;stop-color:#000000;stop-opacity:1"
       d="m 52.11482,155.51513 c 0,0 0.07719,-21.5401 10.173861,-21.46244 10.096667,0.0777 10.408444,21.36854 10.408444,21.36854"
       id="path8324" />
    <path
       style="font-variation-settings:normal;opacity:1;vector-effect:none;fill:none;fill-opacity:1;stroke:#ffffff;stroke-width:0.264583px;stroke-linecap:butt;stroke-linejoin:miter;stroke-miterlimit:4;stroke-dasharray:none;stroke-dashoffset:0;stroke-opacity:1;-inkscape-stroke:none;stop-color:#000000;stop-opacity:1"
       d="m 62.094427,155.4696 c -0.03699,-5.51765 -0.490327,-11.95744 -5.125916,-12.0969 -3.418973,-0.0711 -4.275753,5.18657 -4.853691,12.14243"
       id="path8340"
       sodipodi:nodetypes="ccc" />
    <path
       style="font-variation-settings:normal;opacity:1;vector-effect:none;fill:none;fill-opacity:1;stroke:#ffffff;stroke-width:0.264583px;stroke-linecap:butt;stroke-linejoin:miter;stroke-miterlimit:4;stroke-dasharray:none;stroke-dashoffset:0;stroke-opacity:1;-inkscape-stroke:none;stop-color:#000000;stop-opacity:1"
       d="m 62.094427,155.4696 c 0.442416,0.0983 -1.646648,-16.41521 3.805754,-16.5239 5.940322,-0.11841 6.796944,16.47553 6.796944,16.47553"
       id="path8342"
       sodipodi:nodetypes="csc" />
    <path
       style="font-variation-settings:normal;opacity:1;vector-effect:none;fill:none;fill-opacity:1;stroke:#ffffff;stroke-width:0.216976px;stroke-linecap:butt;stroke-linejoin:miter;stroke-miterlimit:4;stroke-dasharray:none;stroke-dashoffset:0;stroke-opacity:1;-inkscape-stroke:none;stop-color:#000000;stop-opacity:1"
       d="m 81.590404,120.13581 c -2.12106,-2.54148 5.037948,-9.45475 7.33884,-7.15393 2.300892,2.30083 -5.572178,8.96285 -7.33884,7.15393 z"
       id="path9212"
       sodipodi:nodetypes="csc" />
    <path
       style="font-variation-settings:normal;opacity:1;vector-effect:none;fill:none;fill-opacity:1;stroke:#ffffff;stroke-width:0.216976px;stroke-linecap:butt;stroke-linejoin:miter;stroke-miterlimit:4;stroke-dasharray:none;stroke-dashoffset:0;stroke-opacity:1;-inkscape-stroke:none;stop-color:#000000;stop-opacity:1"
       d="m 85.044923,113.55868 c -0.07482,-5.98772 -8.164716,3.27666 -10.200988,11.22392 11.1975,-0.53705 20.483057,-8.17787 13.364817,-8.20673"
       id="path9536"
       sodipodi:nodetypes="ccc" />
    <path
       style="font-variation-settings:normal;opacity:1;vector-effect:none;fill:none;fill-opacity:1;stroke:#ffffff;stroke-width:0.264583px;stroke-linecap:butt;stroke-linejoin:miter;stroke-miterlimit:4;stroke-dasharray:none;stroke-dashoffset:0;stroke-opacity:1;-inkscape-stroke:none;stop-color:#000000;stop-opacity:1"
       d="m 7.757238,155.71749 c -1.9907808,-0.0369 -1.7299173,-1.58833 -1.7299173,-1.97276 0,-0.38443 -0.1510263,-32.64913 -0.1510263,-32.64913 0,-1.17746 0.7177775,-1.53772 1.6475591,-1.53772 H 76.898727"
       id="path9971"
       sodipodi:nodetypes="csccc" />
    <path
       style="font-variation-settings:normal;opacity:1;vector-effect:none;fill:none;fill-opacity:1;stroke:#ffffff;stroke-width:0.264583px;stroke-linecap:butt;stroke-linejoin:miter;stroke-miterlimit:4;stroke-dasharray:none;stroke-dashoffset:0;stroke-opacity:1;-inkscape-stroke:none;stop-color:#000000;stop-opacity:1"
       d="m 82.405259,155.37694 3e-6,-32.01493"
       id="path9973"
       sodipodi:nodetypes="cc" />
    <path
       style="font-variation-settings:normal;opacity:1;vector-effect:none;fill:none;fill-opacity:1;stroke:#ffffff;stroke-width:0.264583px;stroke-linecap:butt;stroke-linejoin:miter;stroke-miterlimit:4;stroke-dasharray:none;stroke-dashoffset:0;stroke-opacity:1;-inkscape-stroke:none;stop-color:#000000;stop-opacity:1"
       d="m 8.2326685,119.55788 c -1.2815003,0 -1.2815003,-0.99969 -1.2815003,-0.99969 l -0.1165,-34.988839 c 0,-2.485334 2.174667,-2.097 2.174667,-2.097 H 77.30567 c 2.485334,0 2.446501,1.980502 2.446501,1.980502 l 5e-6,31.610177"
       id="path10887"
       sodipodi:nodetypes="ccccscc" />
    <path
       style="font-variation-settings:normal;opacity:1;vector-effect:none;fill:none;fill-opacity:1;stroke:#ffffff;stroke-width:0.264583px;stroke-linecap:butt;stroke-linejoin:miter;stroke-miterlimit:4;stroke-dasharray:none;stroke-dashoffset:0;stroke-opacity:1;-inkscape-stroke:none;stop-color:#000000;stop-opacity:1"
       d="m 78.582702,99.335689 c 0,0 -33.536025,-1.087333 -33.536025,-16.523589 h 33.536025 v 33.88359 m -33.536025,2.86219 c 0,-15.43661 33.536025,-20.222191 33.536025,-20.222191"
       id="path11622"
       sodipodi:nodetypes="cccccc" />
    <path
       style="font-variation-settings:normal;opacity:1;vector-effect:none;fill:none;fill-opacity:1;stroke:#ffffff;stroke-width:0.264583px;stroke-linecap:butt;stroke-linejoin:miter;stroke-miterlimit:4;stroke-dasharray:none;stroke-dashoffset:0;stroke-opacity:1;-inkscape-stroke:none;stop-color:#000000;stop-opacity:1"
       d="m 51.069877,109.26123 c -3.9262,-8.29454 0.397174,-16.563262 0.397174,-16.563262"
       id="path12268" />
    <path
       style="font-variation-settings:normal;opacity:1;vector-effect:none;fill:none;fill-opacity:1;stroke:#ffffff;stroke-width:0.264583px;stroke-linecap:butt;stroke-linejoin:miter;stroke-miterlimit:4;stroke-dasharray:none;stroke-dashoffset:0;stroke-opacity:1;-inkscape-stroke:none;stop-color:#000000;stop-opacity:1"
       d="m 39.486501,119.55788 c 4.515722,0 4.523934,-6.53232 4.44841,-19.22153 C 43.864962,88.583843 38.403244,86.072661 20.884199,85.633312"
       id="path12642"
       sodipodi:nodetypes="csc" />
    <circle
       style="fill:none;fill-rule:evenodd;stroke:#ffffff;stroke-width:0.166907;stroke-linecap:round;paint-order:stroke fill markers;stop-color:#000000"
       id="path12666"
       cx="18.232986"
       cy="86.057503"
       r="2.6849329" />
    <path
       style="font-variation-settings:normal;opacity:1;vector-effect:none;fill:none;fill-opacity:1;stroke:#ffffff;stroke-width:0.264583px;stroke-linecap:butt;stroke-linejoin:miter;stroke-miterlimit:4;stroke-dasharray:none;stroke-dashoffset:0;stroke-opacity:1;-inkscape-stroke:none;stop-color:#000000;stop-opacity:1"
       d="m 15.548661,86.000393 c -8.2524614,0.268809 -0.336198,17.026967 -7.4207024,17.081887 8.6771454,0.10984 -2.581176,16.4756 11.3681584,16.4756"
       id="path13014" />
    <path
       style="font-variation-settings:normal;opacity:1;vector-effect:none;fill:none;fill-opacity:1;stroke:#ffffff;stroke-width:0.264583px;stroke-linecap:butt;stroke-linejoin:miter;stroke-miterlimit:4;stroke-dasharray:none;stroke-dashoffset:0;stroke-opacity:1;-inkscape-stroke:none;stop-color:#000000;stop-opacity:1"
       d="m 11.537154,105.4588 c 0,0 6.03681,-11.657765 14.878711,0.0948 0,0 -4.723003,-3.40493 -10.709134,0.16478 5.327108,3.62463 10.709134,-0.16478 10.709134,-0.16478"
       id="path13330" />
    <circle
       style="fill:none;fill-rule:evenodd;stroke:#ffffff;stroke-width:0.264583;stroke-linecap:round;paint-order:stroke fill markers;stop-color:#000000"
       id="path13493"
       cx="20.896544"
       cy="105.69092"
       r="0.63156432" />
    <path
       style="font-variation-settings:normal;opacity:1;vector-effect:none;fill:none;fill-opacity:1;stroke:#ffffff;stroke-width:0.264583px;stroke-linecap:butt;stroke-linejoin:miter;stroke-miterlimit:4;stroke-dasharray:none;stroke-dashoffset:0;stroke-opacity:1;-inkscape-stroke:none;stop-color:#000000;stop-opacity:1"
       d="m 30.479844,101.43472 9.061576,-0.6041"
       id="path13635" />
    <path
       style="font-variation-settings:normal;opacity:1;vector-effect:none;fill:none;fill-opacity:1;stroke:#ffffff;stroke-width:0.264583px;stroke-linecap:butt;stroke-linejoin:miter;stroke-miterlimit:4;stroke-dasharray:none;stroke-dashoffset:0;stroke-opacity:1;-inkscape-stroke:none;stop-color:#000000;stop-opacity:1"
       d="m 30.754439,107.47578 9.061574,-0.54919"
       id="path13637" />
    <path
       style="font-variation-settings:normal;opacity:1;vector-effect:none;fill:none;fill-opacity:1;stroke:#ffffff;stroke-width:0.264583px;stroke-linecap:butt;stroke-linejoin:miter;stroke-miterlimit:4;stroke-dasharray:none;stroke-dashoffset:0;stroke-opacity:1;-inkscape-stroke:none;stop-color:#000000;stop-opacity:1"
       d="m 44.192343,81.472351 c 0,0 1.811645,-34.406342 -18.407004,-34.406342 -19.2301142,0 -16.7760038,34.406342 -16.7760038,34.406342"
       id="path13701"
       sodipodi:nodetypes="csc" />
    <path
       style="font-variation-settings:normal;opacity:1;vector-effect:none;fill:none;fill-opacity:1;stroke:#ffffff;stroke-width:0.264583px;stroke-linecap:butt;stroke-linejoin:miter;stroke-miterlimit:4;stroke-dasharray:none;stroke-dashoffset:0;stroke-opacity:1;-inkscape-stroke:none;stop-color:#000000;stop-opacity:1"
       d="m 15.300337,81.472351 c 0,0 0,-24.076673 10.407335,-23.999004 10.407336,0.07767 10.718002,23.999004 10.718002,23.999004"
       id="path13703" />
    <path
       style="font-variation-settings:normal;opacity:1;vector-effect:none;fill:none;fill-opacity:1;stroke:#ffffff;stroke-width:0.264583px;stroke-linecap:butt;stroke-linejoin:miter;stroke-miterlimit:4;stroke-dasharray:none;stroke-dashoffset:0;stroke-opacity:1;-inkscape-stroke:none;stop-color:#000000;stop-opacity:1"
       d="m 26.173672,81.472351 c 0,0 0,-13.436335 -5.747334,-13.436335 -5.747335,0 -5.126001,13.436335 -5.126001,13.436335"
       id="path13705" />
    <path
       style="font-variation-settings:normal;opacity:1;vector-effect:none;fill:none;fill-opacity:1;stroke:#ffffff;stroke-width:0.264583px;stroke-linecap:butt;stroke-linejoin:miter;stroke-miterlimit:4;stroke-dasharray:none;stroke-dashoffset:0;stroke-opacity:1;-inkscape-stroke:none;stop-color:#000000;stop-opacity:1"
       d="m 26.173672,81.472351 c 0,0 -0.699,-16.698338 3.572667,-16.62067 4.271669,0.07767 6.679335,16.62067 6.679335,16.62067"
       id="path13707"
       sodipodi:nodetypes="csc" />
    <path
       style="font-variation-settings:normal;opacity:1;vector-effect:none;fill:none;fill-opacity:1;stroke:#ffffff;stroke-width:0.264583px;stroke-linecap:butt;stroke-linejoin:miter;stroke-miterlimit:4;stroke-dasharray:none;stroke-dashoffset:0;stroke-opacity:1;-inkscape-stroke:none;stop-color:#000000;stop-opacity:1"
       d="m 44.192343,81.472351 -0.07767,-30.911339 c 0,-4.582335 3.029,-4.349335 3.029,-4.349335 h 24.193172 c 4.438393,0 7.446046,3.04509 7.491038,6.132969 0.04807,3.298835 -3.781195,6.353294 -18.830374,6.487865 0,0 10.057836,0.815502 10.135502,5.242502 0.07767,4.427003 -7.766668,4.893003 -7.766668,4.893003 12.946762,0.04427 16.39143,3.734095 16.440146,7.148464 0.03932,2.756062 -1.822819,5.386773 -5.100809,5.355871"
       id="path13979"
       sodipodi:nodetypes="cccsscscsc" />
    <path
       style="font-variation-settings:normal;opacity:1;vector-effect:none;fill:none;fill-opacity:1;stroke:#ffffff;stroke-width:0.264583px;stroke-linecap:butt;stroke-linejoin:miter;stroke-miterlimit:4;stroke-dasharray:none;stroke-dashoffset:0;stroke-opacity:1;-inkscape-stroke:none;stop-color:#000000;stop-opacity:1"
       d="m 48.697012,55.958846 c 0,0 9.941331,0 9.902501,-3.456167 -0.03883,-3.611501 -9.902501,-3.262001 -9.902501,-3.262001 v 29.901673 c 0,0 9.941331,0.310667 9.902501,-3.883334 0,-4.776501 -9.902501,-4.388168 -9.902501,-4.388168"
       id="path14925" />
  </g>
</svg>
