<?xml version="1.0" encoding="UTF-8" standalone="no"?>
<!-- Created with Inkscape (http://www.inkscape.org/) -->

<svg
   width="226.77161"
   height="298.39111"
   viewBox="0 0 59.999987 78.949314"
   version="1.1"
   id="svg852"
   inkscape:version="1.1 (c68e22c387, 2021-05-23)"
   sodipodi:docname="sina-alasa-wawa-e-sona-li-utala-pona.svg"
   xmlns:inkscape="http://www.inkscape.org/namespaces/inkscape"
   xmlns:sodipodi="http://sodipodi.sourceforge.net/DTD/sodipodi-0.dtd"
   xmlns="http://www.w3.org/2000/svg"
   xmlns:svg="http://www.w3.org/2000/svg">
  <sodipodi:namedview
     id="namedview854"
     pagecolor="#1d1d1d"
     bordercolor="#999999"
     borderopacity="1"
     inkscape:pageshadow="0"
     inkscape:pageopacity="0"
     inkscape:pagecheckerboard="true"
     inkscape:document-units="mm"
     showgrid="false"
     units="px"
     inkscape:zoom="0.94867185"
     inkscape:cx="120.168"
     inkscape:cy="235.59253"
     inkscape:window-width="1854"
     inkscape:window-height="1056"
     inkscape:window-x="58"
     inkscape:window-y="440"
     inkscape:window-maximized="1"
     inkscape:current-layer="layer1"
     inkscape:snap-global="true"
     inkscape:snap-page="false"
     inkscape:object-paths="true"
     inkscape:snap-object-midpoints="true"
     inkscape:snap-bbox="false"
     inkscape:snap-midpoints="false" />
  <defs
     id="defs849" />
  <g
     inkscape:label="Layer 1"
     inkscape:groupmode="layer"
     id="layer1"
     transform="translate(2.9785342,-18.845656)">
    <path
       id="path4764"
       style="fill:none;fill-rule:evenodd;stroke:#ffffff;stroke-width:0.14402;stroke-linejoin:round;paint-order:stroke fill markers;stop-color:#000000"
       d="m 17.562627,49.395895 c 0,1.768417 -1.433585,3.202002 -3.202001,3.202002 -1.768416,0 -3.202001,-1.433585 -3.202001,-3.202002 0,-1.768416 1.471478,-1.837834 3.239895,-1.837834 1.768416,0 3.164107,0.06942 3.164107,1.837834 z"
       sodipodi:nodetypes="sssss" />
    <path
       style="font-variation-settings:normal;opacity:1;vector-effect:none;fill:none;fill-opacity:1;stroke:#ffffff;stroke-width:0.143794px;stroke-linecap:butt;stroke-linejoin:miter;stroke-miterlimit:4;stroke-dasharray:none;stroke-dashoffset:0;stroke-opacity:1;-inkscape-stroke:none;stop-color:#000000;stop-opacity:1"
       d="m 1.3732846,94.879941 c 0,0 0.4287161,-1.926521 1.8756328,-1.926521 H 49.364512 c 1.554096,0 1.822044,1.926521 1.822044,1.926521 z"
       id="path870"
       sodipodi:nodetypes="csscc" />
    <path
       style="font-variation-settings:normal;opacity:1;vector-effect:none;fill:none;fill-opacity:1;stroke:#ffffff;stroke-width:0.143794px;stroke-linecap:butt;stroke-linejoin:miter;stroke-miterlimit:4;stroke-dasharray:none;stroke-dashoffset:0;stroke-opacity:1;-inkscape-stroke:none;stop-color:#000000;stop-opacity:1"
       d="m 3.302507,92.95342 c 0,0 0.2679474,-21.971696 0.2679474,-23.418612 0,-1.446917 0.5358954,-1.714865 2.1971703,-1.714865 1.6612743,0 39.6026463,0.05359 40.9423853,0.05359 1.339738,0 1.607685,0.535892 1.607685,2.250757 0,1.714866 1.0182,22.829129 1.0182,22.829129"
       id="path1359" />
    <path
       style="font-variation-settings:normal;opacity:1;vector-effect:none;fill:none;fill-opacity:1;stroke:#ffffff;stroke-width:0.143794px;stroke-linecap:butt;stroke-linejoin:miter;stroke-miterlimit:4;stroke-dasharray:none;stroke-dashoffset:0;stroke-opacity:1;-inkscape-stroke:none;stop-color:#000000;stop-opacity:1"
       d="M 26.88189,92.95342 C 26.183272,73.281209 15.120816,69.106089 15.120816,69.106089 c 0,0 -10.3905827,4.046333 -10.6929294,23.847331"
       id="path1577"
       sodipodi:nodetypes="ccc" />
    <circle
       style="fill:none;fill-rule:evenodd;stroke:#ffffff;stroke-width:0.108713;stroke-linejoin:round;paint-order:stroke fill markers;stop-color:#000000"
       id="path2078"
       cx="15.360148"
       cy="75.644012"
       r="2.7507188" />
    <path
       style="font-variation-settings:normal;opacity:1;vector-effect:none;fill:none;fill-opacity:1;stroke:#ffffff;stroke-width:0.143794px;stroke-linecap:butt;stroke-linejoin:miter;stroke-miterlimit:4;stroke-dasharray:none;stroke-dashoffset:0;stroke-opacity:1;-inkscape-stroke:none;stop-color:#000000;stop-opacity:1"
       d="m 13.233642,73.899188 4.230563,3.516664"
       id="path2193" />
    <path
       style="font-variation-settings:normal;opacity:1;vector-effect:none;fill:none;fill-opacity:1;stroke:#ffffff;stroke-width:0.143794px;stroke-linecap:butt;stroke-linejoin:miter;stroke-miterlimit:4;stroke-dasharray:none;stroke-dashoffset:0;stroke-opacity:1;-inkscape-stroke:none;stop-color:#000000;stop-opacity:1"
       d="m 13.604262,77.761403 3.466506,-4.271505"
       id="path2195" />
    <path
       style="font-variation-settings:normal;opacity:1;vector-effect:none;fill:none;fill-opacity:1;stroke:#ffffff;stroke-width:0.143794px;stroke-linecap:butt;stroke-linejoin:miter;stroke-miterlimit:4;stroke-dasharray:none;stroke-dashoffset:0;stroke-opacity:1;-inkscape-stroke:none;stop-color:#000000;stop-opacity:1"
       d="m 6.571467,92.95342 2.1971701,-6.591506 3.4833179,2.679476 3.751266,-7.984837 2.947422,4.287158 3.268961,-1.982809 2.08999,9.592518"
       id="path2217" />
    <path
       style="font-variation-settings:normal;opacity:1;vector-effect:none;fill:none;fill-opacity:1;stroke:#ffffff;stroke-width:0.143794px;stroke-linecap:butt;stroke-linejoin:miter;stroke-miterlimit:4;stroke-dasharray:none;stroke-dashoffset:0;stroke-opacity:1;-inkscape-stroke:none;stop-color:#000000;stop-opacity:1"
       d="m 28.06086,92.95342 c 0,0 -0.911021,-0.160765 -0.911021,-2.143579 0,-1.982808 -0.10718,-8.41355 1.286148,-9.914058 1.393327,-1.500509 9.324575,-0.267949 9.324575,-0.267949"
       id="path2353" />
    <path
       style="font-variation-settings:normal;opacity:1;vector-effect:none;fill:none;fill-opacity:1;stroke:#ffffff;stroke-width:0.143794px;stroke-linecap:butt;stroke-linejoin:miter;stroke-miterlimit:4;stroke-dasharray:none;stroke-dashoffset:0;stroke-opacity:1;-inkscape-stroke:none;stop-color:#000000;stop-opacity:1"
       d="m 28.905669,80.578231 c 0,0 -1.059166,-1.236543 -1.059166,-4.612681 0,-3.376139 0.750252,-4.876647 1.982811,-4.876647 1.232559,0 2.411528,3.697679 2.411528,3.697679 0,0 0.911023,-3.483322 2.465118,-3.483322 1.554095,0 2.14358,3.376138 2.14358,3.376138 0,0 -0.696665,-3.429725 5.091002,-3.161776 5.787668,0.267943 6.002026,2.785013 6.002026,16.773513 0,4.662285 -1.822043,4.662285 -1.822043,4.662285"
       id="path2388"
       sodipodi:nodetypes="csscscssc" />
    <path
       style="font-variation-settings:normal;opacity:1;vector-effect:none;fill:none;fill-opacity:1;stroke:#ffffff;stroke-width:0.143794px;stroke-linecap:butt;stroke-linejoin:miter;stroke-miterlimit:4;stroke-dasharray:none;stroke-dashoffset:0;stroke-opacity:1;-inkscape-stroke:none;stop-color:#000000;stop-opacity:1"
       d="m 37.439024,85.665251 c 3.644086,-0.05359 6.162794,-2.518706 7.556121,-1.125381 1.393327,1.39333 -3.001012,4.126393 -7.288173,4.019214 -4.28716,-0.107178 -7.824069,-0.750254 -7.824069,-3.161781 0,-2.411528 4.44793,0.214356 7.556121,0.267948 z"
       id="path2541" />
    <path
       style="font-variation-settings:normal;opacity:1;vector-effect:none;fill:none;fill-opacity:1;stroke:#ffffff;stroke-width:0.143794px;stroke-linecap:butt;stroke-linejoin:miter;stroke-miterlimit:4;stroke-dasharray:none;stroke-dashoffset:0;stroke-opacity:1;-inkscape-stroke:none;stop-color:#000000;stop-opacity:1"
       d="m 31.597767,85.986786 c 3.215371,1.178968 8.467144,1.286147 11.950461,-0.589483"
       id="path2576" />
    <path
       style="font-variation-settings:normal;opacity:1;vector-effect:none;fill:none;fill-opacity:1;stroke:#ffffff;stroke-width:0.143794px;stroke-linecap:butt;stroke-linejoin:miter;stroke-miterlimit:4;stroke-dasharray:none;stroke-dashoffset:0;stroke-opacity:1;-inkscape-stroke:none;stop-color:#000000;stop-opacity:1"
       d="m 26.000288,67.846247 c 0,0 0.150617,-15.397179 0.07483,-17.595002 -0.07579,-2.197824 0.227361,-2.728333 2.349398,-2.728333 2.122036,0 18.416244,0 20.235132,-0.07579 1.818888,-0.07579 2.122036,0.833657 2.122036,2.046249 0,1.212592 -0.151574,1.941356 -0.22736,3.457096 -0.07579,1.51574 -0.606298,1.393273 -2.197824,1.393273 -1.591528,0 -1.51574,0.378935 -1.51574,1.591528 v 10.34218 c 0,1.439955 -1.515928,1.594627 -1.515928,1.594627"
       id="path2735"
       sodipodi:nodetypes="cssssssssc" />
    <path
       style="font-variation-settings:normal;opacity:1;vector-effect:none;fill:none;fill-opacity:1;stroke:#ffffff;stroke-width:0.143794px;stroke-linecap:butt;stroke-linejoin:miter;stroke-miterlimit:4;stroke-dasharray:none;stroke-dashoffset:0;stroke-opacity:1;-inkscape-stroke:none;stop-color:#000000;stop-opacity:1"
       d="m 50.286465,54.009356 c 0,0 0.04125,3.152342 0.04125,3.701797 0,0.549456 -0.07579,0.795764 -0.719977,0.81471 -0.64419,0.01895 -2.766984,0.05684 -2.766984,0.05684"
       id="path3089"
       sodipodi:nodetypes="cssc" />
    <path
       style="font-variation-settings:normal;opacity:1;vector-effect:none;fill:none;fill-opacity:1;stroke:#ffffff;stroke-width:0.143794px;stroke-linecap:butt;stroke-linejoin:miter;stroke-miterlimit:4;stroke-dasharray:none;stroke-dashoffset:0;stroke-opacity:1;-inkscape-stroke:none;stop-color:#000000;stop-opacity:1"
       d="m 50.184445,58.347368 c 0,0 -0.04828,3.401168 -0.02934,4.007461 0.01894,0.606298 -0.208414,0.644189 -0.833657,0.66314 -0.625243,0.01897 -2.480693,-0.05684 -2.480693,-0.05684"
       id="path3091"
       sodipodi:nodetypes="cscc" />
    <path
       style="font-variation-settings:normal;opacity:1;vector-effect:none;fill:none;fill-opacity:1;stroke:#ffffff;stroke-width:0.143794px;stroke-linecap:butt;stroke-linejoin:miter;stroke-miterlimit:4;stroke-dasharray:none;stroke-dashoffset:0;stroke-opacity:1;-inkscape-stroke:none;stop-color:#000000;stop-opacity:1"
       d="m 49.986234,62.902337 c 0,0 -0.0067,1.957029 -0.0067,2.373857 0,0.416827 -0.107311,0.655287 -0.63782,0.712124 -0.530508,0.05684 -2.50097,0.113678 -2.50097,0.113678"
       id="path3093"
       sodipodi:nodetypes="cssc" />
    <path
       style="font-variation-settings:normal;opacity:1;vector-effect:none;fill:none;fill-opacity:1;stroke:#ffffff;stroke-width:0.143794px;stroke-linecap:butt;stroke-linejoin:miter;stroke-miterlimit:4;stroke-dasharray:none;stroke-dashoffset:0;stroke-opacity:1;-inkscape-stroke:none;stop-color:#000000;stop-opacity:1"
       d="m 31.190659,67.853301 c 0,0 -2.993505,-0.480963 -3.220866,-8.362815 -0.275351,-9.545493 5.646132,-10.420713 8.563932,-10.420713 2.917799,0 9.132722,-0.607735 9.132335,11.860666 -1.88e-4,6.032196 -5.797852,6.934563 -5.797852,6.934563"
       id="path3252"
       sodipodi:nodetypes="csssc" />
    <path
       style="font-variation-settings:normal;opacity:1;vector-effect:none;fill:none;fill-opacity:1;stroke:#ffffff;stroke-width:0.143794px;stroke-linecap:butt;stroke-linejoin:miter;stroke-miterlimit:4;stroke-dasharray:none;stroke-dashoffset:0;stroke-opacity:1;-inkscape-stroke:none;stop-color:#000000;stop-opacity:1"
       d="m 32.74429,67.85541 c 0,0 -3.182969,-2.638977 -1.250401,-5.708352 1.932569,-3.069373 3.258841,3.524094 5.229304,0.151574 1.970462,-3.372521 -1.326273,-4.168285 -0.454723,-5.532452 0.871551,-1.364166 3.069375,-0.11368 3.827244,-1.212591 0.757871,-1.098913 0.64419,-2.235717 0.64419,-2.235717"
       id="path3932" />
    <path
       style="font-variation-settings:normal;opacity:1;vector-effect:none;fill:none;fill-opacity:1;stroke:#ffffff;stroke-width:0.143794px;stroke-linecap:butt;stroke-linejoin:miter;stroke-miterlimit:4;stroke-dasharray:none;stroke-dashoffset:0;stroke-opacity:1;-inkscape-stroke:none;stop-color:#000000;stop-opacity:1"
       d="m 15.836103,47.617533 9.632718,0.0921 c 0,0 0.840384,20.218521 -11.361175,20.119815 C 1.9060872,67.730742 3.1495468,47.558058 3.1495468,47.558058 l 10.0063732,0.03763"
       id="path4311"
       sodipodi:nodetypes="czccc" />
    <path
       style="font-variation-settings:normal;opacity:1;vector-effect:none;fill:none;fill-opacity:1;stroke:#ffffff;stroke-width:0.143794px;stroke-linecap:butt;stroke-linejoin:miter;stroke-miterlimit:4;stroke-dasharray:none;stroke-dashoffset:0;stroke-opacity:1;-inkscape-stroke:none;stop-color:#000000;stop-opacity:1"
       d="m 8.3399208,54.744103 12.4863552,-0.214358 -4.019212,3.804854 3.376138,-0.160767 -6.002025,6.484329 -5.5197194,-6.269971 2.8402444,0.05359 z"
       id="path5757" />
    <path
       style="font-variation-settings:normal;opacity:1;vector-effect:none;fill:none;fill-opacity:1;stroke:#ffffff;stroke-width:0.143794px;stroke-linecap:butt;stroke-linejoin:miter;stroke-miterlimit:4;stroke-dasharray:none;stroke-dashoffset:0;stroke-opacity:1;-inkscape-stroke:none;stop-color:#000000;stop-opacity:1"
       d="m 27.791448,47.54345 c 0,0 -1.579426,-0.301878 -1.552632,-1.480848 0.0268,-1.178969 0.0268,-17.47018 0.05359,-18.274023 0.02679,-0.803841 0.160767,-1.0182 1.178969,-0.96461 1.018201,0.05359 18.425566,-1.680477 18.541969,10.483902 C 46.120523,48.508078 27.791449,47.54345 27.791449,47.54345 Z"
       id="path6117"
       sodipodi:nodetypes="csssscc" />
    <path
       style="font-variation-settings:normal;opacity:1;vector-effect:none;fill:none;fill-opacity:1;stroke:#ffffff;stroke-width:0.143794px;stroke-linecap:butt;stroke-linejoin:miter;stroke-miterlimit:4;stroke-dasharray:none;stroke-dashoffset:0;stroke-opacity:1;-inkscape-stroke:none;stop-color:#000000;stop-opacity:1"
       d="m 28.994458,26.7786 c 0,0 0.379458,-0.449761 0.486523,9.69148 0.107067,10.141239 -0.669861,11.052823 -0.669861,11.052823"
       id="path6196"
       sodipodi:nodetypes="csc" />
    <path
       style="font-variation-settings:normal;opacity:1;vector-effect:none;fill:none;fill-opacity:1;stroke:#ffffff;stroke-width:0.143794px;stroke-linecap:butt;stroke-linejoin:miter;stroke-miterlimit:4;stroke-dasharray:none;stroke-dashoffset:0;stroke-opacity:1;-inkscape-stroke:none;stop-color:#000000;stop-opacity:1"
       d="m 29.258181,28.596527 4.027656,2.085887 -1.500506,2.491911 8.467143,0.803843 -6.645099,5.224976 1.822043,3.161782 -6.098983,1.856901"
       id="path6508" />
    <path
       style="font-variation-settings:normal;opacity:1;vector-effect:none;fill:none;fill-opacity:1;stroke:#ffffff;stroke-width:0.143794px;stroke-linecap:butt;stroke-linejoin:miter;stroke-miterlimit:4;stroke-dasharray:none;stroke-dashoffset:0;stroke-opacity:1;-inkscape-stroke:none;stop-color:#000000;stop-opacity:1"
       d="m 3.1495468,47.558058 c 0,0 -1.3650854,-20.410782 11.0270102,-20.424599 12.392716,-0.01381 11.889773,20.53828 11.889773,20.53828 l -0.597509,0.0379"
       id="path6782"
       sodipodi:nodetypes="csc" />
    <path
       style="font-variation-settings:normal;opacity:1;vector-effect:none;fill:none;fill-opacity:1;stroke:#ffffff;stroke-width:0.143794px;stroke-linecap:butt;stroke-linejoin:miter;stroke-miterlimit:4;stroke-dasharray:none;stroke-dashoffset:0;stroke-opacity:1;-inkscape-stroke:none;stop-color:#000000;stop-opacity:1"
       d="m 7.9997042,47.5763 c 0,0 0.8717618,-17.032425 6.3284278,-16.956638 5.456664,0.07579 5.535862,17.036381 5.535862,17.036381"
       id="path7394" />
    <path
       style="font-variation-settings:normal;opacity:1;vector-effect:none;fill:none;fill-opacity:1;stroke:#ffffff;stroke-width:0.143794px;stroke-linecap:butt;stroke-linejoin:miter;stroke-miterlimit:4;stroke-dasharray:none;stroke-dashoffset:0;stroke-opacity:1;-inkscape-stroke:none;stop-color:#000000;stop-opacity:1"
       d="m 7.9997042,47.5763 c 0,0 0.2275725,-7.389902 3.1074788,-7.238327 2.879907,0.151573 3.10917,7.220403 3.10917,7.220403"
       id="path7396"
       sodipodi:nodetypes="csc" />
    <path
       style="font-variation-settings:normal;opacity:1;vector-effect:none;fill:none;fill-opacity:1;stroke:#ffffff;stroke-width:0.143794px;stroke-linecap:butt;stroke-linejoin:miter;stroke-miterlimit:4;stroke-dasharray:none;stroke-dashoffset:0;stroke-opacity:1;-inkscape-stroke:none;stop-color:#000000;stop-opacity:1"
       d="m 14.216353,47.558376 c 0,0 -0.646092,-10.724179 2.006453,-10.534712 2.652545,0.189468 3.641188,10.632379 3.641188,10.632379"
       id="path7398" />
    <path
       id="rect1666"
       style="fill:none;fill-rule:evenodd;stroke:#ff0000;stroke-width:0.221864;stroke-linecap:square;stroke-linejoin:bevel"
       d="m 48.061556,18.96506 c -15.404832,-0.0063 -30.810211,-0.0113 -46.2147257,0.0095 -2.56964498,0.135435 -4.8006515,2.46153 -4.6999858,5.000222 -0.028371,6.747033 -0.00472,13.494974 -0.012957,20.242373 0.0022,16.286242 -0.00591,32.573002 0.01413,48.858906 0.1480667,2.514238 2.51468312,4.692909 5.0975721,4.594029 6.8784478,0.02783 13.7578244,0.0038 20.6366454,0.01299 9.801974,-0.0049 19.604776,0.01 29.406227,-0.01837 2.538132,-0.188977 4.714694,-2.498402 4.607685,-5.012184 0.02848,-6.593289 0.0043,-13.187458 0.01299,-19.781117 -0.0016,-16.433764 0.0049,-32.868045 -0.01527,-49.301506 -0.145439,-2.52696 -2.53882,-4.715768 -5.133816,-4.594894 -1.232509,-0.02865 -2.465735,-0.01711 -3.698464,-0.01 z" />
    <circle
       style="fill:none;fill-rule:evenodd;stroke:#ff0000;stroke-width:0.116316;stroke-linecap:square;stroke-linejoin:bevel"
       id="path2295"
       cx="27.048187"
       cy="22.589092"
       r="1.5610666" />
    <circle
       style="fill:none;fill-rule:evenodd;stroke:#ff0000;stroke-width:0.116316;stroke-linecap:square;stroke-linejoin:bevel"
       id="path2295-9"
       cx="51.56731"
       cy="22.589092"
       r="1.5610666" />
    <circle
       style="fill:none;fill-rule:evenodd;stroke:#ff0000;stroke-width:0.116316;stroke-linecap:square;stroke-linejoin:bevel"
       id="path2295-9-4"
       cx="2.5290637"
       cy="22.589092"
       r="1.5610666" />
  </g>
</svg>
