<?xml version="1.0" encoding="UTF-8" standalone="no"?>
<!-- Created with Inkscape (http://www.inkscape.org/) -->

<svg
   width="59.999989mm"
   height="83.918213mm"
   viewBox="0 0 59.999987 83.918207"
   version="1.1"
   id="svg5"
   inkscape:version="1.2.2 (732a01da63, 2022-12-09)"
   sodipodi:docname="sina-tu-li-pali-taso-lon-wile-sina.svg"
   xmlns:inkscape="http://www.inkscape.org/namespaces/inkscape"
   xmlns:sodipodi="http://sodipodi.sourceforge.net/DTD/sodipodi-0.dtd"
   xmlns="http://www.w3.org/2000/svg"
   xmlns:svg="http://www.w3.org/2000/svg">
  <sodipodi:namedview
     id="namedview7"
     pagecolor="#000000"
     bordercolor="#999999"
     borderopacity="1"
     inkscape:pageshadow="0"
     inkscape:pageopacity="0"
     inkscape:pagecheckerboard="true"
     inkscape:document-units="mm"
     showgrid="false"
     units="px"
     inkscape:snap-global="true"
     inkscape:zoom="2.7711705"
     inkscape:cx="102.30334"
     inkscape:cy="114.39209"
     inkscape:window-width="1823"
     inkscape:window-height="1046"
     inkscape:window-x="86"
     inkscape:window-y="-11"
     inkscape:window-maximized="1"
     inkscape:current-layer="layer1"
     inkscape:snap-grids="true"
     inkscape:snap-intersection-paths="false"
     inkscape:object-paths="true"
     inkscape:snap-page="true"
     inkscape:snap-bbox="true"
     inkscape:bbox-paths="false"
     inkscape:showpageshadow="0"
     inkscape:deskcolor="#000000" />
  <defs
     id="defs2">
    <inkscape:path-effect
       effect="bspline"
       id="path-effect12425"
       is_visible="true"
       lpeversion="1"
       weight="33.333333"
       steps="2"
       helper_size="0"
       apply_no_weight="true"
       apply_with_weight="true"
       only_selected="false" />
  </defs>
  <g
     inkscape:label="Layer 1"
     inkscape:groupmode="layer"
     id="layer1"
     transform="translate(-12.731946,-39.802298)">
    <path
       style="font-variation-settings:normal;opacity:1;vector-effect:none;fill:none;fill-opacity:1;stroke:#ffffff;stroke-width:0.164136px;stroke-linecap:butt;stroke-linejoin:miter;stroke-miterlimit:4;stroke-dasharray:none;stroke-dashoffset:0;stroke-opacity:1;-inkscape-stroke:none;stop-color:#000000;stop-opacity:1"
       d="m 17.668997,120.06205 c 0.240906,-1.58999 0.993248,-1.78218 1.252711,-1.78271 l 47.699358,-0.0968 c 1.374841,-0.003 1.638159,1.97543 1.638159,1.97543 z"
       id="path3393"
       sodipodi:nodetypes="csscc" />
    <path
       style="font-variation-settings:normal;opacity:1;vector-effect:none;fill:none;fill-opacity:1;stroke:#ffffff;stroke-width:0.164136px;stroke-linecap:butt;stroke-linejoin:miter;stroke-miterlimit:4;stroke-dasharray:none;stroke-dashoffset:0;stroke-opacity:1;-inkscape-stroke:none;stop-color:#000000;stop-opacity:1"
       d="m 20.950073,118.27009 c 0,0 -1.260131,-0.10993 -1.260131,-1.0298 0,-0.91986 -0.102208,-17.20496 -0.102208,-17.20496 0,0 -0.511038,-3.270644 3.13437,-3.270644 3.168438,0 2.827746,4.394934 2.827746,4.394934 -0.05213,-0.83402 0.95041,-4.232046 3.679477,-4.292724 3.134369,-0.06969 2.895884,4.497134 2.895884,4.497134 0.686927,-5.261775 6.502154,-4.511557 10.322979,-3.849821 l -0.340942,20.659361"
       id="path7003"
       sodipodi:nodetypes="cscscsccc" />
    <ellipse
       style="fill:none;fill-rule:evenodd;stroke:#ffffff;stroke-width:0.139022;stroke-linecap:round;paint-order:stroke fill markers;stop-color:#000000"
       id="path7858"
       cx="25.106949"
       cy="106.11669"
       rx="3.4876189"
       ry="3.2661691" />
    <path
       style="font-variation-settings:normal;opacity:1;vector-effect:none;fill:none;fill-opacity:1;stroke:#ffffff;stroke-width:0.164136px;stroke-linecap:butt;stroke-linejoin:miter;stroke-miterlimit:4;stroke-dasharray:none;stroke-dashoffset:0;stroke-opacity:1;-inkscape-stroke:none;stop-color:#000000;stop-opacity:1"
       d="m 30.149196,112.3684 c 0.102208,1.7716 2.418916,3.91796 2.418916,3.91796"
       id="path7973" />
    <path
       style="font-variation-settings:normal;opacity:1;vector-effect:none;fill:none;fill-opacity:1;stroke:#ffffff;stroke-width:0.164136px;stroke-linecap:butt;stroke-linejoin:miter;stroke-miterlimit:4;stroke-dasharray:none;stroke-dashoffset:0;stroke-opacity:1;-inkscape-stroke:none;stop-color:#000000;stop-opacity:1"
       d="m 32.806596,111.5848 c 0.340693,1.39684 2.112293,3.88389 2.112293,3.88389"
       id="path7975" />
    <path
       style="font-variation-settings:normal;opacity:1;vector-effect:none;fill:none;fill-opacity:1;stroke:#ffffff;stroke-width:0.164136px;stroke-linecap:butt;stroke-linejoin:miter;stroke-miterlimit:4;stroke-dasharray:none;stroke-dashoffset:0;stroke-opacity:1;-inkscape-stroke:none;stop-color:#000000;stop-opacity:1"
       d="m 35.225513,111.1419 c 0.511037,1.90788 2.078222,3.5432 2.078222,3.5432"
       id="path7977" />
    <path
       style="font-variation-settings:normal;opacity:1;vector-effect:none;fill:none;fill-opacity:1;stroke:#ffffff;stroke-width:0.164136px;stroke-linecap:butt;stroke-linejoin:miter;stroke-miterlimit:4;stroke-dasharray:none;stroke-dashoffset:0;stroke-opacity:1;-inkscape-stroke:none;stop-color:#000000;stop-opacity:1"
       d="m 42.107248,118.17357 c 0.40908,-21.851783 10.118511,-20.693431 12.060758,-20.693431 2.960972,0 9.703916,1.112706 10.390397,20.591011"
       id="path7989"
       sodipodi:nodetypes="csc" />
    <path
       style="font-variation-settings:normal;opacity:1;vector-effect:none;fill:none;fill-opacity:1;stroke:#ffffff;stroke-width:0.164136px;stroke-linecap:butt;stroke-linejoin:miter;stroke-miterlimit:4;stroke-dasharray:none;stroke-dashoffset:0;stroke-opacity:1;-inkscape-stroke:none;stop-color:#000000;stop-opacity:1"
       d="m 47.011625,118.1512 c 0,0 0.04789,-13.36258 6.311439,-13.31441 6.263551,0.0482 6.456965,13.25616 6.456965,13.25616"
       id="path8324" />
    <path
       style="font-variation-settings:normal;opacity:1;vector-effect:none;fill:none;fill-opacity:1;stroke:#ffffff;stroke-width:0.164136px;stroke-linecap:butt;stroke-linejoin:miter;stroke-miterlimit:4;stroke-dasharray:none;stroke-dashoffset:0;stroke-opacity:1;-inkscape-stroke:none;stop-color:#000000;stop-opacity:1"
       d="m 53.202557,118.12295 c -0.02295,-3.42292 -0.304178,-7.4179 -3.179904,-7.50441 -2.120989,-0.0441 -2.652499,3.21753 -3.011028,7.53266"
       id="path8340"
       sodipodi:nodetypes="ccc" />
    <path
       style="font-variation-settings:normal;opacity:1;vector-effect:none;fill:none;fill-opacity:1;stroke:#ffffff;stroke-width:0.164136px;stroke-linecap:butt;stroke-linejoin:miter;stroke-miterlimit:4;stroke-dasharray:none;stroke-dashoffset:0;stroke-opacity:1;-inkscape-stroke:none;stop-color:#000000;stop-opacity:1"
       d="m 53.202557,118.12295 c 0.274457,0.061 -1.021512,-10.18331 2.360931,-10.25074 3.685128,-0.0734 4.216541,10.22074 4.216541,10.22074"
       id="path8342"
       sodipodi:nodetypes="csc" />
    <path
       style="font-variation-settings:normal;opacity:1;vector-effect:none;fill:none;fill-opacity:1;stroke:#ffffff;stroke-width:0.134603px;stroke-linecap:butt;stroke-linejoin:miter;stroke-miterlimit:4;stroke-dasharray:none;stroke-dashoffset:0;stroke-opacity:1;-inkscape-stroke:none;stop-color:#000000;stop-opacity:1"
       d="m 65.297048,96.203342 c -1.315817,-1.576628 3.125331,-5.865332 4.552707,-4.437999 1.427382,1.427339 -3.456744,5.560178 -4.552707,4.437999 z"
       id="path9212"
       sodipodi:nodetypes="csc" />
    <path
       style="font-variation-settings:normal;opacity:1;vector-effect:none;fill:none;fill-opacity:1;stroke:#ffffff;stroke-width:0.134603px;stroke-linecap:butt;stroke-linejoin:miter;stroke-miterlimit:4;stroke-dasharray:none;stroke-dashoffset:0;stroke-opacity:1;-inkscape-stroke:none;stop-color:#000000;stop-opacity:1"
       d="m 67.440085,92.123165 c -0.0464,-3.714531 -5.065047,2.032704 -6.328265,6.962852 6.946464,-0.333163 12.706838,-5.073209 8.290973,-5.091113"
       id="path9536"
       sodipodi:nodetypes="ccc" />
    <path
       style="font-variation-settings:normal;opacity:1;vector-effect:none;fill:none;fill-opacity:1;stroke:#ffffff;stroke-width:0.164136px;stroke-linecap:butt;stroke-linejoin:miter;stroke-miterlimit:4;stroke-dasharray:none;stroke-dashoffset:0;stroke-opacity:1;-inkscape-stroke:none;stop-color:#000000;stop-opacity:1"
       d="m 19.494032,118.27673 c -1.234998,-0.0229 -1.073169,-0.98533 -1.073169,-1.22382 0,-0.23848 -0.09369,-20.254154 -0.09369,-20.254154 0,-0.730447 0.445279,-0.953937 1.022076,-0.953937 h 43.037278"
       id="path9971"
       sodipodi:nodetypes="csccc" />
    <path
       style="font-variation-settings:normal;opacity:1;vector-effect:none;fill:none;fill-opacity:1;stroke:#ffffff;stroke-width:0.164136px;stroke-linecap:butt;stroke-linejoin:miter;stroke-miterlimit:4;stroke-dasharray:none;stroke-dashoffset:0;stroke-opacity:1;-inkscape-stroke:none;stop-color:#000000;stop-opacity:1"
       d="m 65.80255,118.06547 2e-6,-19.860728"
       id="path9973"
       sodipodi:nodetypes="cc" />
    <path
       style="font-variation-settings:normal;opacity:1;vector-effect:none;fill:none;fill-opacity:1;stroke:#ffffff;stroke-width:0.164136px;stroke-linecap:butt;stroke-linejoin:miter;stroke-miterlimit:4;stroke-dasharray:none;stroke-dashoffset:0;stroke-opacity:1;-inkscape-stroke:none;stop-color:#000000;stop-opacity:1"
       d="m 19.788969,95.844819 c -0.794989,0 -0.794989,-0.620166 -0.794989,-0.620166 l -0.07227,-21.70562 c 0,-1.541798 1.349072,-1.300891 1.349072,-1.300891 H 62.63898 c 1.541797,0 1.517707,1.22862 1.517707,1.22862 l 3e-6,19.609639"
       id="path10887"
       sodipodi:nodetypes="ccccscc" />
    <path
       style="font-variation-settings:normal;opacity:1;vector-effect:none;fill:none;fill-opacity:1;stroke:#ffffff;stroke-width:0.164136px;stroke-linecap:butt;stroke-linejoin:miter;stroke-miterlimit:4;stroke-dasharray:none;stroke-dashoffset:0;stroke-opacity:1;-inkscape-stroke:none;stop-color:#000000;stop-opacity:1"
       d="m 63.431195,83.299816 c 0,0 -20.804351,-0.674541 -20.804351,-10.25055 h 20.804351 v 21.01997 m -20.804351,1.775583 c 0,-9.576229 20.804351,-12.545003 20.804351,-12.545003"
       id="path11622"
       sodipodi:nodetypes="cccccc" />
    <path
       style="font-variation-settings:normal;opacity:1;vector-effect:none;fill:none;fill-opacity:1;stroke:#ffffff;stroke-width:0.164136px;stroke-linecap:butt;stroke-linejoin:miter;stroke-miterlimit:4;stroke-dasharray:none;stroke-dashoffset:0;stroke-opacity:1;-inkscape-stroke:none;stop-color:#000000;stop-opacity:1"
       d="m 46.363386,89.457207 c -2.435651,-5.145587 0.24639,-10.275162 0.24639,-10.275162"
       id="path12268" />
    <path
       style="font-variation-settings:normal;opacity:1;vector-effect:none;fill:none;fill-opacity:1;stroke:#ffffff;stroke-width:0.164136px;stroke-linecap:butt;stroke-linejoin:miter;stroke-miterlimit:4;stroke-dasharray:none;stroke-dashoffset:0;stroke-opacity:1;-inkscape-stroke:none;stop-color:#000000;stop-opacity:1"
       d="m 39.177543,95.844819 c 2.801365,0 2.80646,-4.052379 2.759608,-11.924236 -0.04339,-7.290768 -3.431616,-8.848601 -14.2997,-9.121155"
       id="path12642"
       sodipodi:nodetypes="csc" />
    <circle
       style="fill:none;fill-rule:evenodd;stroke:#ffffff;stroke-width:0.103542;stroke-linecap:round;paint-order:stroke fill markers;stop-color:#000000"
       id="path12666"
       cx="25.992748"
       cy="75.062576"
       r="1.6656204" />
    <path
       style="font-variation-settings:normal;opacity:1;vector-effect:none;fill:none;fill-opacity:1;stroke:#ffffff;stroke-width:0.164136px;stroke-linecap:butt;stroke-linejoin:miter;stroke-miterlimit:4;stroke-dasharray:none;stroke-dashoffset:0;stroke-opacity:1;-inkscape-stroke:none;stop-color:#000000;stop-opacity:1"
       d="m 24.327506,75.02715 c -5.119484,0.166758 -0.208564,10.562824 -4.603495,10.596894 5.382939,0.06814 -1.601254,10.220775 7.052332,10.220775"
       id="path13014" />
    <path
       style="font-variation-settings:normal;opacity:1;vector-effect:none;fill:none;fill-opacity:1;stroke:#ffffff;stroke-width:0.164136px;stroke-linecap:butt;stroke-linejoin:miter;stroke-miterlimit:4;stroke-dasharray:none;stroke-dashoffset:0;stroke-opacity:1;-inkscape-stroke:none;stop-color:#000000;stop-opacity:1"
       d="m 21.838934,87.098338 c 0,0 3.744985,-7.231995 9.230132,0.05881 0,0 -2.929954,-2.112277 -6.6435,0.102222 3.304715,2.24857 6.6435,-0.102222 6.6435,-0.102222"
       id="path13330" />
    <circle
       style="fill:none;fill-rule:evenodd;stroke:#ffffff;stroke-width:0.164136;stroke-linecap:round;paint-order:stroke fill markers;stop-color:#000000"
       id="path13493"
       cx="27.645107"
       cy="87.242325"
       r="0.39179617" />
    <path
       style="font-variation-settings:normal;opacity:1;vector-effect:none;fill:none;fill-opacity:1;stroke:#ffffff;stroke-width:0.164136px;stroke-linecap:butt;stroke-linejoin:miter;stroke-miterlimit:4;stroke-dasharray:none;stroke-dashoffset:0;stroke-opacity:1;-inkscape-stroke:none;stop-color:#000000;stop-opacity:1"
       d="m 33.590189,84.601966 5.621423,-0.374758"
       id="path13635" />
    <path
       style="font-variation-settings:normal;opacity:1;vector-effect:none;fill:none;fill-opacity:1;stroke:#ffffff;stroke-width:0.164136px;stroke-linecap:butt;stroke-linejoin:miter;stroke-miterlimit:4;stroke-dasharray:none;stroke-dashoffset:0;stroke-opacity:1;-inkscape-stroke:none;stop-color:#000000;stop-opacity:1"
       d="m 33.760536,88.349588 5.621422,-0.340695"
       id="path13637" />
    <path
       style="font-variation-settings:normal;opacity:1;vector-effect:none;fill:none;fill-opacity:1;stroke:#ffffff;stroke-width:0.164136px;stroke-linecap:butt;stroke-linejoin:miter;stroke-miterlimit:4;stroke-dasharray:none;stroke-dashoffset:0;stroke-opacity:1;-inkscape-stroke:none;stop-color:#000000;stop-opacity:1"
       d="m 42.096851,72.218142 c 0,0 1.123869,-21.34426 -11.418937,-21.34426 -11.929562,0 -10.407134,21.34426 -10.407134,21.34426"
       id="path13701"
       sodipodi:nodetypes="csc" />
    <path
       style="font-variation-settings:normal;opacity:1;vector-effect:none;fill:none;fill-opacity:1;stroke:#ffffff;stroke-width:0.164136px;stroke-linecap:butt;stroke-linejoin:miter;stroke-miterlimit:4;stroke-dasharray:none;stroke-dashoffset:0;stroke-opacity:1;-inkscape-stroke:none;stop-color:#000000;stop-opacity:1"
       d="m 24.173456,72.218142 c 0,0 0,-14.936164 6.456276,-14.887981 6.456277,0.04818 6.649001,14.887981 6.649001,14.887981"
       id="path13703" />
    <path
       style="font-variation-settings:normal;opacity:1;vector-effect:none;fill:none;fill-opacity:1;stroke:#ffffff;stroke-width:0.164136px;stroke-linecap:butt;stroke-linejoin:miter;stroke-miterlimit:4;stroke-dasharray:none;stroke-dashoffset:0;stroke-opacity:1;-inkscape-stroke:none;stop-color:#000000;stop-opacity:1"
       d="m 30.918819,72.218142 c 0,0 0,-8.335342 -3.565406,-8.335342 -3.565407,0 -3.179957,8.335342 -3.179957,8.335342"
       id="path13705" />
    <path
       style="font-variation-settings:normal;opacity:1;vector-effect:none;fill:none;fill-opacity:1;stroke:#ffffff;stroke-width:0.164136px;stroke-linecap:butt;stroke-linejoin:miter;stroke-miterlimit:4;stroke-dasharray:none;stroke-dashoffset:0;stroke-opacity:1;-inkscape-stroke:none;stop-color:#000000;stop-opacity:1"
       d="m 30.918819,72.218142 c 0,0 -0.43363,-10.358953 2.216334,-10.310771 2.649965,0.04818 4.14358,10.310771 4.14358,10.310771"
       id="path13707"
       sodipodi:nodetypes="csc" />
    <path
       style="font-variation-settings:normal;opacity:1;vector-effect:none;fill:none;fill-opacity:1;stroke:#ffffff;stroke-width:0.164136px;stroke-linecap:butt;stroke-linejoin:miter;stroke-miterlimit:4;stroke-dasharray:none;stroke-dashoffset:0;stroke-opacity:1;-inkscape-stroke:none;stop-color:#000000;stop-opacity:1"
       d="m 42.096851,72.218142 -0.04818,-19.176106 c 0,-2.842689 1.879065,-2.698146 1.879065,-2.698146 h 15.008435 c 2.753394,0 4.619216,1.889047 4.647127,3.804638 0.02982,2.04646 -2.345695,3.941319 -11.681578,4.024801 0,0 6.239462,0.505904 6.287642,3.25223 0.04818,2.746328 -4.818117,3.035415 -4.818117,3.035415 8.031632,0.02746 10.16856,2.316477 10.198781,4.434609 0.02439,1.709746 -1.130801,3.341729 -3.164329,3.322559"
       id="path13979"
       sodipodi:nodetypes="cccsscscsc" />
    <path
       style="font-variation-settings:normal;opacity:1;vector-effect:none;fill:none;fill-opacity:1;stroke:#ffffff;stroke-width:0.164136px;stroke-linecap:butt;stroke-linejoin:miter;stroke-miterlimit:4;stroke-dasharray:none;stroke-dashoffset:0;stroke-opacity:1;-inkscape-stroke:none;stop-color:#000000;stop-opacity:1"
       d="m 44.89136,56.390627 c 0,0 6.167187,0 6.143098,-2.144061 -0.02409,-2.240425 -6.143098,-2.02361 -6.143098,-2.02361 v 18.549751 c 0,0 6.167187,0.192725 6.143098,-2.409059 0,-2.963142 -6.143098,-2.722236 -6.143098,-2.722236"
       id="path14925" />
    <path
       id="rect1666"
       style="fill:none;fill-rule:evenodd;stroke:#ff0000;stroke-width:0.228736;stroke-linecap:square;stroke-linejoin:bevel"
       d="m 63.769602,39.925678 c -15.40306,-0.0066 -30.806661,-0.01202 -46.209403,0.01007 -2.569349,0.143971 -4.800098,2.616666 -4.699444,5.315359 -0.02837,7.172262 -0.0047,14.345491 -0.01296,21.518143 0.0022,17.312666 -0.0059,34.62589 0.01413,51.93822 0.14805,2.67269 2.514394,4.98868 5.096985,4.88356 6.877657,0.0296 13.756242,0.005 20.634272,0.0138 9.800843,-0.006 19.602521,0.0107 29.402835,-0.0195 2.537842,-0.20087 4.714152,-2.65586 4.607153,-5.32807 0.02854,-7.00884 0.0043,-14.0186 0.01296,-21.027816 -0.0019,-17.4695 0.005,-34.939545 -0.01532,-52.40872 -0.145412,-2.686223 -2.538524,-5.012979 -5.133216,-4.884485 -1.232372,-0.03045 -2.465458,-0.01818 -3.698041,-0.0106 z" />
    <circle
       style="fill:none;fill-rule:evenodd;stroke:#ff0000;stroke-width:0.214024;stroke-linecap:square;stroke-linejoin:bevel"
       id="path2295"
       cx="42.718285"
       cy="44.812466"
       r="2.8723881" />
    <circle
       style="fill:none;fill-rule:evenodd;stroke:#ff0000;stroke-width:0.214024;stroke-linecap:square;stroke-linejoin:bevel"
       id="path2295-9"
       cx="66.300316"
       cy="45.222809"
       r="2.8723881" />
    <circle
       style="fill:none;fill-rule:evenodd;stroke:#ff0000;stroke-width:0.214024;stroke-linecap:square;stroke-linejoin:bevel"
       id="path2295-9-4"
       cx="19.136257"
       cy="45.505558"
       r="2.8723881" />
  </g>
</svg>
