<?xml version="1.0" encoding="UTF-8" standalone="no"?>
<!-- Created with Inkscape (http://www.inkscape.org/) -->

<svg
   width="268.93539"
   height="450.09857"
   viewBox="0 0 71.155821 119.08858"
   version="1.1"
   id="svg17165"
   inkscape:version="1.2.2 (732a01da63, 2022-12-09)"
   sodipodi:docname="sina-pana-olin-li-pona-e-lon-pi-jan-ale.svg"
   xmlns:inkscape="http://www.inkscape.org/namespaces/inkscape"
   xmlns:sodipodi="http://sodipodi.sourceforge.net/DTD/sodipodi-0.dtd"
   xmlns="http://www.w3.org/2000/svg"
   xmlns:svg="http://www.w3.org/2000/svg">
  <sodipodi:namedview
     id="namedview17167"
     pagecolor="#000000"
     bordercolor="#999999"
     borderopacity="1"
     inkscape:pageshadow="0"
     inkscape:pageopacity="0"
     inkscape:pagecheckerboard="true"
     inkscape:document-units="mm"
     showgrid="false"
     units="px"
     inkscape:zoom="1.3416246"
     inkscape:cx="34.659472"
     inkscape:cy="206.4661"
     inkscape:window-width="1823"
     inkscape:window-height="1046"
     inkscape:window-x="86"
     inkscape:window-y="-11"
     inkscape:window-maximized="1"
     inkscape:current-layer="layer1"
     inkscape:snap-page="true"
     inkscape:object-paths="true"
     inkscape:snap-smooth-nodes="false"
     inkscape:snap-global="true"
     inkscape:showpageshadow="0"
     inkscape:deskcolor="#000000"
     showguides="true" />
  <defs
     id="defs17162" />
  <g
     inkscape:label="Layer 1"
     inkscape:groupmode="layer"
     id="layer1"
     transform="translate(0.88507779,-40.715873)">
    <path
       style="font-variation-settings:normal;opacity:1;vector-effect:none;fill:none;fill-opacity:1;stroke:#ffffff;stroke-width:0.169194px;stroke-linecap:butt;stroke-linejoin:miter;stroke-miterlimit:4;stroke-dasharray:none;stroke-dashoffset:0;stroke-opacity:1;-inkscape-stroke:none;stop-color:#000000;stop-opacity:1"
       d="m 5.9047769,155.12682 c 0,-1.67724 1.0758716,-2.85846 2.0808371,-2.85846 h 51.279141 c 2.143893,0 1.639447,2.85846 1.639447,2.85846 z"
       id="path17263"
       sodipodi:nodetypes="csscc" />
    <path
       style="font-variation-settings:normal;opacity:1;vector-effect:none;fill:none;fill-opacity:1;stroke:#ffffff;stroke-width:0.169194px;stroke-linecap:butt;stroke-linejoin:miter;stroke-miterlimit:4;stroke-dasharray:none;stroke-dashoffset:0;stroke-opacity:1;-inkscape-stroke:none;stop-color:#000000;stop-opacity:1"
       d="m 32.509106,152.26836 c -1.248439,0 -1.114678,-1.32158 -1.114678,-1.32158 v -22.38273 c 0,-0.89174 0.925184,-0.92518 0.925184,-0.92518 h 17.566163"
       id="path17863"
       sodipodi:nodetypes="ccscc" />
    <circle
       style="fill:none;fill-rule:evenodd;stroke:#ffffff;stroke-width:0.169194;stroke-linecap:round;paint-order:stroke fill markers;stop-color:#000000"
       id="path17912"
       cx="52.768349"
       cy="129.92397"
       r="3.6784372" />
    <path
       style="font-variation-settings:normal;opacity:1;vector-effect:none;fill:none;fill-opacity:1;stroke:#ffffff;stroke-width:0.169194px;stroke-linecap:butt;stroke-linejoin:miter;stroke-miterlimit:4;stroke-dasharray:none;stroke-dashoffset:0;stroke-opacity:1;-inkscape-stroke:none;stop-color:#000000;stop-opacity:1"
       d="m 49.18564,129.09024 c 0,0 -16.548373,13.11747 -12.847643,17.13031 3.700732,4.01284 18.691858,-13.39547 18.691858,-13.39547"
       id="path18027" />
    <path
       style="font-variation-settings:normal;opacity:1;vector-effect:none;fill:none;fill-opacity:1;stroke:#ffffff;stroke-width:0.169194px;stroke-linecap:butt;stroke-linejoin:miter;stroke-miterlimit:4;stroke-dasharray:none;stroke-dashoffset:0;stroke-opacity:1;-inkscape-stroke:none;stop-color:#000000;stop-opacity:1"
       d="M 50.024836,132.37428 38.567354,144.12496"
       id="path18029" />
    <path
       style="font-variation-settings:normal;opacity:1;vector-effect:none;fill:none;fill-opacity:1;stroke:#ffffff;stroke-width:0.169194px;stroke-linecap:butt;stroke-linejoin:miter;stroke-miterlimit:4;stroke-dasharray:none;stroke-dashoffset:0;stroke-opacity:1;-inkscape-stroke:none;stop-color:#000000;stop-opacity:1"
       d="m 56.217014,131.20365 v 20.2518 c 0,0.70937 -0.664666,0.81291 -0.664666,0.81291"
       id="path18092" />
    <path
       style="font-variation-settings:normal;opacity:1;vector-effect:none;fill:none;fill-opacity:1;stroke:#ffffff;stroke-width:0.169194px;stroke-linecap:butt;stroke-linejoin:miter;stroke-miterlimit:4;stroke-dasharray:none;stroke-dashoffset:0;stroke-opacity:1;-inkscape-stroke:none;stop-color:#000000;stop-opacity:1"
       d="m 30.054198,152.26836 c 1.166531,0 1.34023,-1.81392 1.34023,-1.81392"
       id="path18505" />
    <path
       style="font-variation-settings:normal;opacity:1;vector-effect:none;fill:none;fill-opacity:1;stroke:#ffffff;stroke-width:0.169194px;stroke-linecap:butt;stroke-linejoin:miter;stroke-miterlimit:4;stroke-dasharray:none;stroke-dashoffset:0;stroke-opacity:1;-inkscape-stroke:none;stop-color:#000000;stop-opacity:1"
       d="m 31.394428,138.506 c 0,-1.11468 -1.050598,-1.0506 -1.050598,-1.0506 l -5.241786,-0.80396 c -0.925509,-0.14195 -0.847155,-0.88894 -0.847155,-0.88894 0,0 -0.936333,-6.88633 -3.834492,-6.88633 -2.898163,0 -2.429999,6.97551 -2.429999,6.97551 0,0.73569 -0.743337,0.68074 -0.743337,0.68074 l -5.536453,0.71208 c -0.884457,0.11375 -1.077084,0.53379 -1.077084,0.53379 v 13.46946 c 0,0.99206 0.836009,1.02061 0.836009,1.02061"
       id="path18518"
       sodipodi:nodetypes="ccscsccscsc" />
    <path
       style="font-variation-settings:normal;opacity:1;vector-effect:none;fill:none;fill-opacity:1;stroke:#ffffff;stroke-width:0.169194px;stroke-linecap:butt;stroke-linejoin:miter;stroke-miterlimit:4;stroke-dasharray:none;stroke-dashoffset:0;stroke-opacity:1;-inkscape-stroke:none;stop-color:#000000;stop-opacity:1"
       d="m 17.971867,135.43212 c 3.12842,-0.11105 3.774742,-2.79092 3.774742,-2.79092"
       id="path19524" />
    <circle
       style="fill:#ffffff;fill-rule:evenodd;stroke:none;stroke-width:0.169194;stroke-linecap:round;paint-order:stroke fill markers;stop-color:#000000"
       id="path19641"
       cx="19.807644"
       cy="132.04218"
       r="0.52020955" />
    <circle
       style="fill:#ffffff;fill-rule:evenodd;stroke:none;stroke-width:0.169194;stroke-linecap:round;paint-order:stroke fill markers;stop-color:#000000"
       id="path19641-5"
       cx="54.409462"
       cy="118.20144"
       r="0.52020955" />
    <circle
       style="fill:#ffffff;fill-rule:evenodd;stroke:none;stroke-width:0.169194;stroke-linecap:round;paint-order:stroke fill markers;stop-color:#000000"
       id="path19641-2"
       cx="54.724743"
       cy="121.48035"
       r="0.52020955" />
    <path
       style="font-variation-settings:normal;opacity:1;vector-effect:none;fill:none;fill-opacity:1;stroke:#ffffff;stroke-width:0.169194px;stroke-linecap:butt;stroke-linejoin:miter;stroke-miterlimit:4;stroke-dasharray:none;stroke-dashoffset:0;stroke-opacity:1;-inkscape-stroke:none;stop-color:#000000;stop-opacity:1"
       d="m 13.128249,137.06216 c 0,0 -8.1420261,-9.67696 7.338148,-9.55085 15.480175,0.12611 7.301238,9.54897 7.301238,9.54897"
       id="path19820"
       sodipodi:nodetypes="csc" />
    <path
       style="font-variation-settings:normal;opacity:1;vector-effect:none;fill:none;fill-opacity:1;stroke:#ffffff;stroke-width:0.169194px;stroke-linecap:butt;stroke-linejoin:miter;stroke-miterlimit:4;stroke-dasharray:none;stroke-dashoffset:0;stroke-opacity:1;-inkscape-stroke:none;stop-color:#000000;stop-opacity:1"
       d="m 12.824227,149.25638 c 0.72514,-1.3557 5.044457,-4.88682 5.044457,-4.88682"
       id="path20425" />
    <path
       style="font-variation-settings:normal;opacity:1;vector-effect:none;fill:none;fill-opacity:1;stroke:#ffffff;stroke-width:0.169194px;stroke-linecap:butt;stroke-linejoin:miter;stroke-miterlimit:4;stroke-dasharray:none;stroke-dashoffset:0;stroke-opacity:1;-inkscape-stroke:none;stop-color:#000000;stop-opacity:1"
       d="m 15.12576,150.23374 c 0.441389,-0.81972 4.319316,-3.97251 4.319316,-3.97251"
       id="path20427" />
    <path
       style="font-variation-settings:normal;opacity:1;vector-effect:none;fill:none;fill-opacity:1;stroke:#ffffff;stroke-width:0.169194px;stroke-linecap:butt;stroke-linejoin:miter;stroke-miterlimit:4;stroke-dasharray:none;stroke-dashoffset:0;stroke-opacity:1;-inkscape-stroke:none;stop-color:#000000;stop-opacity:1"
       d="m 12.572003,146.98637 c 0.851253,0.25222 4.161677,2.4907 4.476955,2.96362"
       id="path20429" />
    <path
       style="font-variation-settings:normal;opacity:1;vector-effect:none;fill:none;fill-opacity:1;stroke:#ffffff;stroke-width:0.169194px;stroke-linecap:butt;stroke-linejoin:miter;stroke-miterlimit:4;stroke-dasharray:none;stroke-dashoffset:0;stroke-opacity:1;-inkscape-stroke:none;stop-color:#000000;stop-opacity:1"
       d="m 13.990757,144.96859 c 0.851252,0.25222 4.319315,2.99515 4.886818,3.72029"
       id="path20431" />
    <path
       style="font-variation-settings:normal;opacity:1;vector-effect:none;fill:none;fill-opacity:1;stroke:#ffffff;stroke-width:0.169194px;stroke-linecap:butt;stroke-linejoin:miter;stroke-miterlimit:4;stroke-dasharray:none;stroke-dashoffset:0;stroke-opacity:1;-inkscape-stroke:none;stop-color:#000000;stop-opacity:1"
       d="m 9.0093559,152.26836 v -23.72578 c 0,-2.27001 2.4591731,-2.64834 2.4591731,-2.64834 h 37.644256 c 2.20695,0 1.702504,-10.59336 5.359736,-10.59336 3.65723,0 2.791286,10.84558 2.791286,10.84558 v 26.1219"
       id="path20679"
       sodipodi:nodetypes="cscsscc" />
    <path
       style="font-variation-settings:normal;opacity:1;vector-effect:none;fill:none;fill-opacity:1;stroke:#ffffff;stroke-width:0.169194px;stroke-linecap:butt;stroke-linejoin:miter;stroke-miterlimit:4;stroke-dasharray:none;stroke-dashoffset:0;stroke-opacity:1;-inkscape-stroke:none;stop-color:#000000;stop-opacity:1"
       d="m 13.018935,125.89424 c -2.25165,0 -2.265806,-1.30816 -2.265806,-1.30816 v -11.44761 m 4.259243,-5.504 h 34.969284 c 1.538254,0 1.44908,1.19978 1.44908,1.19978 v 10.99737"
       id="path20951"
       sodipodi:nodetypes="ccccscc" />
    <path
       style="font-variation-settings:normal;opacity:1;vector-effect:none;fill:none;fill-opacity:1;stroke:#ffffff;stroke-width:0.169194px;stroke-linecap:butt;stroke-linejoin:miter;stroke-miterlimit:4;stroke-dasharray:none;stroke-dashoffset:0;stroke-opacity:1;-inkscape-stroke:none;stop-color:#000000;stop-opacity:1"
       d="m 8.4649597,107.6555 c 0.981001,-1.94347 6.7799973,1.09416 5.8180943,3.17001 -0.961904,2.07585 -6.6043419,-1.75018 -5.8180943,-3.17001 z"
       id="path21111" />
    <path
       style="font-variation-settings:normal;opacity:1;vector-effect:none;fill:none;fill-opacity:1;stroke:#ffffff;stroke-width:0.169194px;stroke-linecap:butt;stroke-linejoin:miter;stroke-miterlimit:4;stroke-dasharray:none;stroke-dashoffset:0;stroke-opacity:1;-inkscape-stroke:none;stop-color:#000000;stop-opacity:1"
       d="m 11.364021,107.39099 c -0.556375,-1.7327 0.825946,-1.64543 2.485834,-0.73813 1.659888,0.9073 5.426236,6.47998 5.426236,6.47998 0,0 -7.766112,0.70622 -9.5064171,-0.3169 -1.7403032,-1.02311 -1.7713932,-2.58286 0.2783001,-2.71758"
       id="path21170"
       sodipodi:nodetypes="cscsc" />
    <path
       style="font-variation-settings:normal;opacity:1;vector-effect:none;fill:none;fill-opacity:1;stroke:#ffffff;stroke-width:0.169194px;stroke-linecap:butt;stroke-linejoin:miter;stroke-miterlimit:4;stroke-dasharray:none;stroke-dashoffset:0;stroke-opacity:1;-inkscape-stroke:none;stop-color:#000000;stop-opacity:1"
       d="m 7.985614,152.26836 v -46.42584 c 0,-2.80598 1.7173551,-2.58528 1.7173551,-2.58528 H 64.136873 c 1.797078,0 1.592146,1.08771 1.592146,1.08771 v 8.49676 c 0,1.68621 -1.970483,1.57639 -1.970483,1.57639 h -3.863225 c -1.347816,0 -1.292642,1.63945 -1.292642,1.63945 v 36.21081"
       id="path24163"
       sodipodi:nodetypes="cscscscscc" />
    <path
       style="font-variation-settings:normal;opacity:1;vector-effect:none;fill:none;fill-opacity:1;stroke:#ffffff;stroke-width:0.169194px;stroke-linecap:butt;stroke-linejoin:miter;stroke-miterlimit:4;stroke-dasharray:none;stroke-dashoffset:0;stroke-opacity:1;-inkscape-stroke:none;stop-color:#000000;stop-opacity:1"
       d="m 65.1208,114.07134 v 8.53344 c 0,0.88278 -0.921949,0.80396 -0.921949,0.80396 h -5.596184"
       id="path24779"
       sodipodi:nodetypes="cscc" />
    <path
       style="font-variation-settings:normal;opacity:1;vector-effect:none;fill:none;fill-opacity:1;stroke:#ffffff;stroke-width:0.169194px;stroke-linecap:butt;stroke-linejoin:miter;stroke-miterlimit:4;stroke-dasharray:none;stroke-dashoffset:0;stroke-opacity:1;-inkscape-stroke:none;stop-color:#000000;stop-opacity:1"
       d="m 65.037406,123.0034 v 7.60693 c 0,0.46534 -0.364311,0.49045 -0.364311,0.49045 h -6.070428"
       id="path24808"
       sodipodi:nodetypes="cscc" />
    <path
       style="font-variation-settings:normal;opacity:1;vector-effect:none;fill:none;fill-opacity:1;stroke:#ffffff;stroke-width:0.169194px;stroke-linecap:butt;stroke-linejoin:miter;stroke-miterlimit:4;stroke-dasharray:none;stroke-dashoffset:0;stroke-opacity:1;-inkscape-stroke:none;stop-color:#000000;stop-opacity:1"
       d="m 64.959412,130.92039 v 6.5761 c 0,0.48079 -0.492579,0.4808 -0.492579,0.4808 h -5.864166"
       id="path25530"
       sodipodi:nodetypes="cscc" />
    <path
       style="font-variation-settings:normal;opacity:1;vector-effect:none;fill:none;fill-opacity:1;stroke:#ffffff;stroke-width:0.199679px;stroke-linecap:butt;stroke-linejoin:miter;stroke-miterlimit:4;stroke-dasharray:none;stroke-dashoffset:0;stroke-opacity:1;-inkscape-stroke:none;stop-color:#000000;stop-opacity:1"
       d="m 58.981142,103.25724 c 1.227874,0 1.562752,-0.66975 1.48833,-12.12996 -0.07441,-11.460204 -3.346288,-9.832678 -6.995179,-9.897454 -8.928936,-0.1585 -8.706781,5.655695 -8.706781,5.655695 0,0 0.669752,-4.762689 -2.530175,-4.837102 -3.199928,-0.07441 -2.827844,4.465011 -2.827844,4.465011 0,0 0.223252,-4.390598 -3.199928,-4.390598 -3.423179,0 -2.36711,11.372062 -2.36711,11.372062"
       id="path26053"
       sodipodi:nodetypes="csscscsc" />
    <path
       style="font-variation-settings:normal;opacity:1;vector-effect:none;fill:none;fill-opacity:1;stroke:#ffffff;stroke-width:0.199679px;stroke-linecap:butt;stroke-linejoin:miter;stroke-miterlimit:4;stroke-dasharray:none;stroke-dashoffset:0;stroke-opacity:1;-inkscape-stroke:none;stop-color:#000000;stop-opacity:1"
       d="m 35.15039,103.25724 c -1.004629,0 -2.454027,0.66861 -2.567385,-4.353387 -0.1638,-7.256789 4.212104,-9.244799 13.320632,-7.131561"
       id="path26086"
       sodipodi:nodetypes="csc" />
    <path
       style="font-variation-settings:normal;opacity:1;vector-effect:none;fill:none;fill-opacity:1;stroke:#ffffff;stroke-width:0.199679px;stroke-linecap:butt;stroke-linejoin:miter;stroke-miterlimit:4;stroke-dasharray:none;stroke-dashoffset:0;stroke-opacity:1;-inkscape-stroke:none;stop-color:#000000;stop-opacity:1"
       d="m 36.395607,97.537074 c -0.520917,-2.418549 6.957985,-1.376711 9.785827,-1.823211 2.827845,-0.446507 9.74862,-4.353399 10.716041,-0.855802 0.967416,3.497597 -7.218446,5.320809 -9.934663,5.618479 -2.716218,0.29767 -9.897451,-0.0744 -10.567205,-2.939466 z"
       id="path26846"
       sodipodi:nodetypes="csssc" />
    <path
       style="font-variation-settings:normal;opacity:1;vector-effect:none;fill:none;fill-opacity:1;stroke:#ffffff;stroke-width:0.199679px;stroke-linecap:butt;stroke-linejoin:miter;stroke-miterlimit:4;stroke-dasharray:none;stroke-dashoffset:0;stroke-opacity:1;-inkscape-stroke:none;stop-color:#000000;stop-opacity:1"
       d="m 38.77695,97.862016 c 4.483784,1.412361 14.730199,-0.515013 16.036849,-2.306928"
       id="path27921"
       sodipodi:nodetypes="cc" />
    <path
       style="font-variation-settings:normal;opacity:1;vector-effect:none;fill:none;fill-opacity:1;stroke:#ffffff;stroke-width:0.169194px;stroke-linecap:butt;stroke-linejoin:miter;stroke-miterlimit:4;stroke-dasharray:none;stroke-dashoffset:0;stroke-opacity:1;-inkscape-stroke:none;stop-color:#000000;stop-opacity:1"
       d="m 32.841894,103.25724 c -1.270733,0 -1.382201,-1.04417 -1.382201,-1.04417 V 82.762745 c 0,-1.000794 1.217439,-2.240584 1.817732,-2.219017 l 25.899514,-0.312111 c 1.038838,-0.07306 1.937421,0.813478 2.04067,2.219017 l 0.139335,20.085686 c 0.02229,0.65766 -0.579633,0.72092 -0.579633,0.72092"
       id="path28613"
       sodipodi:nodetypes="ccsccccc" />
    <path
       style="fill:none;stroke:#ffffff;stroke-width:0.169194px;stroke-linecap:butt;stroke-linejoin:miter;stroke-opacity:1"
       d="m 9.7029691,103.25724 c 0,0 -0.042589,-1.98589 -0.077136,-3.05728 C 9.4474845,94.669307 13.476582,82.908361 20.14695,83.373732 c 4.190005,0.292323 4.432721,16.037109 4.432721,16.037109 0,0 0.566829,-1.842855 3.373479,-1.828621 2.844457,0.01445 3.02165,5.67502 3.02165,5.67502"
       id="path2796"
       sodipodi:nodetypes="csscsc" />
    <path
       style="font-variation-settings:normal;opacity:1;vector-effect:none;fill:none;fill-opacity:1;stroke:#ffffff;stroke-width:0.169194px;stroke-linecap:butt;stroke-linejoin:miter;stroke-miterlimit:4;stroke-dasharray:none;stroke-dashoffset:0;stroke-opacity:1;-inkscape-stroke:none;stop-color:#000000;stop-opacity:1"
       d="M 9.8377683,97.264389 C 9.512379,83.973145 10.661349,80.593519 21.805831,80.855837 c 14.264554,0.335758 7.729384,17.509176 7.729384,17.509176"
       id="path3216"
       sodipodi:nodetypes="csc" />
    <path
       style="font-variation-settings:normal;opacity:1;vector-effect:none;fill:none;fill-opacity:1;stroke:#ffffff;stroke-width:0.169194px;stroke-linecap:butt;stroke-linejoin:miter;stroke-miterlimit:4;stroke-dasharray:none;stroke-dashoffset:0;stroke-opacity:1;-inkscape-stroke:none;stop-color:#000000;stop-opacity:1"
       d="m 36.696894,80.502521 c -1.024279,0.01233 -1.381165,-1.296407 -1.381165,-1.296407 V 58.651452 c 0,-1.69431 1.649722,-3.07651 3.299447,-3.031924 1.649722,0.04459 9.898339,7.223114 10.121274,9.987515"
       id="path3370" />
    <path
       style="font-variation-settings:normal;opacity:1;vector-effect:none;fill:none;fill-opacity:1;stroke:#ffffff;stroke-width:0.169194px;stroke-linecap:butt;stroke-linejoin:miter;stroke-miterlimit:4;stroke-dasharray:none;stroke-dashoffset:0;stroke-opacity:1;-inkscape-stroke:none;stop-color:#000000;stop-opacity:1"
       d="m 41.961773,57.645363 c 0.900739,-3.817742 11.019852,-2.509724 12.537074,-2.481212 6.952367,0.130649 3.629346,10.710388 4.135944,21.768019 0,1.426789 2.742108,3.32174 2.742108,3.32174 l -2.206524,-0.02222"
       id="path3409"
       sodipodi:nodetypes="csccc" />
    <circle
       style="fill:none;fill-rule:evenodd;stroke:#ffffff;stroke-width:0.220619;stroke-linecap:square;stroke-linejoin:bevel"
       id="path3501"
       cx="41.413559"
       cy="67.851463"
       r="3.4365361" />
    <circle
       style="fill:none;fill-rule:evenodd;stroke:#ffffff;stroke-width:0.220619;stroke-linecap:square;stroke-linejoin:bevel"
       id="path3503"
       cx="48.444275"
       cy="74.440781"
       r="1.7655599" />
    <path
       style="font-variation-settings:normal;opacity:1;vector-effect:none;fill:none;fill-opacity:1;stroke:#ffffff;stroke-width:0.169194px;stroke-linecap:butt;stroke-linejoin:miter;stroke-miterlimit:4;stroke-dasharray:none;stroke-dashoffset:0;stroke-opacity:1;-inkscape-stroke:none;stop-color:#000000;stop-opacity:1"
       d="m 35.011936,79.277792 c -0.03895,1.320339 -0.593455,1.158179 -1.056933,1.257771 l -22.371417,0.431486 c -1.418561,0.09399 -1.657842,-1.06248 -1.537947,-2.139446 0.541159,-4.860992 1.068589,-22.620741 12.193356,-22.762202 12.794171,-0.16269 12.772941,23.212391 12.772941,23.212391 z"
       id="path3545"
       sodipodi:nodetypes="cccssc" />
    <path
       style="font-variation-settings:normal;opacity:1;vector-effect:none;fill:none;fill-opacity:1;stroke:#ffffff;stroke-width:0.169194px;stroke-linecap:butt;stroke-linejoin:miter;stroke-miterlimit:4;stroke-dasharray:none;stroke-dashoffset:0;stroke-opacity:1;-inkscape-stroke:none;stop-color:#000000;stop-opacity:1"
       d="m 14.989181,80.901362 c 0,0 -1.476553,-17.568261 6.950412,-17.657437 8.426965,-0.08917 8.251579,17.364232 8.251579,17.364232"
       id="path3670" />
    <path
       style="font-variation-settings:normal;opacity:1;vector-effect:none;fill:none;fill-opacity:1;stroke:#ffffff;stroke-width:0.169194px;stroke-linecap:butt;stroke-linejoin:miter;stroke-miterlimit:4;stroke-dasharray:none;stroke-dashoffset:0;stroke-opacity:1;-inkscape-stroke:none;stop-color:#000000;stop-opacity:1"
       d="m 22.098275,80.764247 c 0,0 -1.520134,-12.820379 2.668576,-13.101951 4.95563,-0.333125 5.424321,12.945861 5.424321,12.945861"
       id="path3672"
       sodipodi:nodetypes="csc" />
    <path
       style="font-variation-settings:normal;opacity:1;vector-effect:none;fill:none;fill-opacity:1;stroke:#ffffff;stroke-width:0.169194px;stroke-linecap:butt;stroke-linejoin:miter;stroke-miterlimit:4;stroke-dasharray:none;stroke-dashoffset:0;stroke-opacity:1;-inkscape-stroke:none;stop-color:#000000;stop-opacity:1"
       d="m 22.098275,80.764246 c 0,0 -0.957092,-9.259142 -4.141439,-9.28708 -3.594175,-0.03153 -2.967655,9.424196 -2.967655,9.424196"
       id="path3674"
       sodipodi:nodetypes="csc" />
    <path
       id="rect1666"
       style="fill:none;fill-rule:evenodd;stroke:#ff0000;stroke-width:0.296717;stroke-linecap:square;stroke-linejoin:bevel"
       d="m 59.633188,40.877036 c -18.260432,-0.0095 -36.521507,-0.01706 -54.7815641,0.01429 -3.0459811,0.204358 -5.6905496,3.714201 -5.57122367,7.544832 -0.0336337,10.180593 -0.005572,20.362557 -0.0153622,30.543704 0.002617,24.574298 -0.006999,49.149378 0.0167517,73.723188 0.17551438,3.79373 2.98083147,7.08112 6.04251137,6.93192 8.1535079,0.042 16.3081199,0.006 24.4620709,0.0196 11.618969,-0.008 23.23892,0.0151 34.857269,-0.0277 3.008626,-0.28514 5.588656,-3.76983 5.461807,-7.56288 0.03379,-9.94861 0.0047,-19.89855 0.0154,-29.84771 -0.0025,-24.796911 0.006,-49.594587 -0.01813,-74.391026 -0.172385,-3.812929 -3.009434,-7.115619 -6.085468,-6.933232 -1.460984,-0.04323 -2.922809,-0.02581 -4.384052,-0.01505 z" />
    <circle
       style="fill:none;fill-rule:evenodd;stroke:#ff0000;stroke-width:0.214024;stroke-linecap:square;stroke-linejoin:bevel"
       id="path2295"
       cx="34.692837"
       cy="46.360271"
       r="2.8723881" />
    <circle
       style="fill:none;fill-rule:evenodd;stroke:#ff0000;stroke-width:0.214024;stroke-linecap:square;stroke-linejoin:bevel"
       id="path2295-9"
       cx="58.27486"
       cy="46.706814"
       r="2.8723881" />
    <circle
       style="fill:none;fill-rule:evenodd;stroke:#ff0000;stroke-width:0.214024;stroke-linecap:square;stroke-linejoin:bevel"
       id="path2295-9-4"
       cx="11.110808"
       cy="47.053356"
       r="2.8723881" />
  </g>
</svg>
