<?xml version="1.0" encoding="UTF-8" standalone="no"?>
<!-- Created with Inkscape (http://www.inkscape.org/) -->

<svg
   width="340.15744"
   height="307.2532"
   viewBox="0 0 89.999989 81.294075"
   version="1.1"
   id="svg5"
   inkscape:version="1.1 (c68e22c387, 2021-05-23)"
   sodipodi:docname="sina-kute-suli-li-sona-suli-tawa-ale.svg"
   xmlns:inkscape="http://www.inkscape.org/namespaces/inkscape"
   xmlns:sodipodi="http://sodipodi.sourceforge.net/DTD/sodipodi-0.dtd"
   xmlns="http://www.w3.org/2000/svg"
   xmlns:svg="http://www.w3.org/2000/svg">
  <sodipodi:namedview
     id="namedview7"
     pagecolor="#1e1e1e"
     bordercolor="#999999"
     borderopacity="1"
     inkscape:pageshadow="0"
     inkscape:pageopacity="0"
     inkscape:pagecheckerboard="true"
     inkscape:document-units="mm"
     showgrid="false"
     units="px"
     inkscape:zoom="0.7071068"
     inkscape:cx="265.87214"
     inkscape:cy="193.04015"
     inkscape:window-width="1854"
     inkscape:window-height="1056"
     inkscape:window-x="58"
     inkscape:window-y="440"
     inkscape:window-maximized="1"
     inkscape:current-layer="layer1"
     inkscape:snap-page="false"
     inkscape:object-paths="true"
     inkscape:object-nodes="true"
     inkscape:snap-global="false"
     inkscape:snap-smooth-nodes="true" />
  <defs
     id="defs2" />
  <g
     inkscape:label="Layer 1"
     inkscape:groupmode="layer"
     id="layer1"
     transform="translate(2.0056156,-9.9022552)">
    <path
       style="font-variation-settings:normal;opacity:1;vector-effect:none;fill:none;fill-opacity:1;stroke:#ffffff;stroke-width:0.158081px;stroke-linecap:butt;stroke-linejoin:miter;stroke-miterlimit:4;stroke-dasharray:none;stroke-dashoffset:0;stroke-opacity:1;-inkscape-stroke:none;stop-color:#000000;stop-opacity:1"
       d="M 3.4610394,86.613812 C 3.5118489,84.9778 4.2739997,84.909493 4.2739997,84.909493 H 75.865349 c 0,0 1.422682,0.06145 1.473489,1.704319 z"
       id="path870" />
    <path
       style="font-variation-settings:normal;opacity:1;vector-effect:none;fill:none;fill-opacity:1;stroke:#ffffff;stroke-width:0.136377px;stroke-linecap:butt;stroke-linejoin:miter;stroke-miterlimit:4;stroke-dasharray:none;stroke-dashoffset:0;stroke-opacity:1;-inkscape-stroke:none;stop-color:#000000;stop-opacity:1"
       d="m 27.998571,84.909493 v -42.34645 c 0,-1.166604 0.329628,-1.372281 1.761565,-1.372281 h 40.472219"
       id="path1027"
       sodipodi:nodetypes="cssc" />
    <path
       style="font-variation-settings:normal;opacity:1;vector-effect:none;fill:none;fill-opacity:1;stroke:#ffffff;stroke-width:0.136377px;stroke-linecap:butt;stroke-linejoin:miter;stroke-miterlimit:4;stroke-dasharray:none;stroke-dashoffset:0;stroke-opacity:1;-inkscape-stroke:none;stop-color:#000000;stop-opacity:1"
       d="M 74.605356,84.909493 V 43.331658"
       id="path1029"
       sodipodi:nodetypes="cc" />
    <path
       style="font-variation-settings:normal;opacity:1;vector-effect:none;fill:none;fill-opacity:1;stroke:#ffffff;stroke-width:0.136377px;stroke-linecap:butt;stroke-linejoin:miter;stroke-miterlimit:4;stroke-dasharray:none;stroke-dashoffset:0;stroke-opacity:1;-inkscape-stroke:none;stop-color:#000000;stop-opacity:1"
       d="m 10.214779,84.909493 c -0.9148548,0 -0.7623788,-1.077919 -0.7623788,-1.077919 L 9.1474482,70.589862 c -0.012066,-1.260061 0.7939043,-1.576897 1.5247588,-1.575582 0.61384,0.001 6.685253,-0.0052 6.685253,-0.0052 0,0 2.846215,0.13385 2.744565,2.217687 -0.101651,2.083832 -3.103798,1.040195 -4.628557,2.869899 -1.524759,1.82971 -0.762379,9.73477 -0.762379,9.73477 0.10165,1.219805 -0.914855,1.07792 -0.914855,1.07792"
       id="path1247"
       sodipodi:nodetypes="cccscsscc" />
    <path
       style="font-variation-settings:normal;opacity:1;vector-effect:none;fill:none;fill-opacity:1;stroke:#ffffff;stroke-width:0.136377px;stroke-linecap:butt;stroke-linejoin:miter;stroke-miterlimit:4;stroke-dasharray:none;stroke-dashoffset:0;stroke-opacity:1;-inkscape-stroke:none;stop-color:#000000;stop-opacity:1"
       d="m 4.6346286,84.909493 c 0,0 0.1796943,-15.493087 0.1796943,-17.290036 0,-1.796943 0.9344112,-1.653187 1.4016171,-1.653187 0.4672059,0 19.288535,0.426465 19.838274,0.431269 0.572799,0.0052 1.292537,0.09124 1.689129,0.287507 -0.216975,0.307672 -1.868823,-0.02361 -2.192274,1.293802 -0.334646,1.362979 -0.251571,14.016171 -0.251571,15.597485 0,1.581309 -0.970351,1.33316 -0.970351,1.33316"
       id="path2107"
       sodipodi:nodetypes="cssscssc" />
    <path
       style="font-variation-settings:normal;opacity:1;vector-effect:none;fill:none;fill-opacity:1;stroke:#ffffff;stroke-width:0.136377px;stroke-linecap:butt;stroke-linejoin:miter;stroke-miterlimit:4;stroke-dasharray:none;stroke-dashoffset:0;stroke-opacity:1;-inkscape-stroke:none;stop-color:#000000;stop-opacity:1"
       d="m 9.5403668,66.035267 c 4.4712952,0.09845 5.5438922,-7.843362 5.5438922,-7.843362 0,0 3.622326,8.048146 7.232583,8.125844 3.610257,0.0777 5.681729,-6.41085 5.681729,-10.219957 0,-3.809105 -1.294131,-14.544843 -12.962528,-14.689492 C 3.367646,41.26365 3.7051616,47.659902 3.7051616,53.301234 c 0,5.641333 1.8812274,12.647032 5.8352052,12.734033 z"
       id="path3413"
       sodipodi:nodetypes="ccssssc" />
    <path
       style="font-variation-settings:normal;opacity:1;vector-effect:none;fill:none;fill-opacity:1;stroke:#ffffff;stroke-width:0.136377px;stroke-linecap:butt;stroke-linejoin:miter;stroke-miterlimit:4;stroke-dasharray:none;stroke-dashoffset:0;stroke-opacity:1;-inkscape-stroke:none;stop-color:#000000;stop-opacity:1"
       d="M 8.0290351,47.143285 C 13.484112,37.460525 20.780276,62.55387 23.371437,60.917347"
       id="path3585" />
    <path
       style="font-variation-settings:normal;opacity:1;vector-effect:none;fill:none;fill-opacity:1;stroke:#ffffff;stroke-width:0.136377px;stroke-linecap:butt;stroke-linejoin:miter;stroke-miterlimit:4;stroke-dasharray:none;stroke-dashoffset:0;stroke-opacity:1;-inkscape-stroke:none;stop-color:#000000;stop-opacity:1"
       d="M 15.741448,49.320729 9.5291812,59.212637"
       id="path3587" />
    <circle
       style="fill:none;fill-rule:evenodd;stroke:#ffffff;stroke-width:0.111762;stroke-linecap:round;paint-order:stroke fill markers;stop-color:#000000"
       id="path3886"
       cx="35.577168"
       cy="49.120754"
       r="5.6719484" />
    <path
       style="font-variation-settings:normal;opacity:1;vector-effect:none;fill:none;fill-opacity:1;stroke:#ffffff;stroke-width:0.136377px;stroke-linecap:butt;stroke-linejoin:miter;stroke-miterlimit:4;stroke-dasharray:none;stroke-dashoffset:0;stroke-opacity:1;-inkscape-stroke:none;stop-color:#000000;stop-opacity:1"
       d="m 40.006216,45.577514 c 0,0 31.642641,19.022015 24.8238,26.386367 C 58.011169,79.328234 31.913417,53.450639 31.913417,53.450639"
       id="path4045" />
    <path
       style="font-variation-settings:normal;opacity:1;vector-effect:none;fill:none;fill-opacity:1;stroke:#ffffff;stroke-width:0.136377px;stroke-linecap:butt;stroke-linejoin:miter;stroke-miterlimit:4;stroke-dasharray:none;stroke-dashoffset:0;stroke-opacity:1;-inkscape-stroke:none;stop-color:#000000;stop-opacity:1"
       d="M 39.950025,52.73311 60.12501,68.349893"
       id="path4047" />
    <path
       style="font-variation-settings:normal;opacity:1;vector-effect:none;fill:none;fill-opacity:1;stroke:#ffffff;stroke-width:0.136377px;stroke-linecap:butt;stroke-linejoin:miter;stroke-miterlimit:4;stroke-dasharray:none;stroke-dashoffset:0;stroke-opacity:1;-inkscape-stroke:none;stop-color:#000000;stop-opacity:1"
       d="m 30.615834,51.869599 c 0,0 0,28.822402 0,30.936244 0,2.113846 2.09742,2.10365 2.09742,2.10365"
       id="path4242" />
    <path
       style="font-variation-settings:normal;opacity:1;vector-effect:none;fill:none;fill-opacity:1;stroke:#ffffff;stroke-width:0.136377px;stroke-linecap:butt;stroke-linejoin:miter;stroke-miterlimit:4;stroke-dasharray:none;stroke-dashoffset:0;stroke-opacity:1;-inkscape-stroke:none;stop-color:#000000;stop-opacity:1"
       d="m 37.98287,43.984255 c 0,0 28.960987,0 30.59751,0 1.636522,0 1.633966,0.932862 1.633966,2.830113 0,1.897252 0,34.433335 0,36.26423 0,1.830895 -1.565779,1.830895 -1.565779,1.830895"
       id="path4244" />
    <path
       style="font-variation-settings:normal;opacity:1;fill:none;fill-opacity:1;stroke:#ffffff;stroke-width:0.136592;stroke-linecap:butt;stroke-linejoin:round;stroke-miterlimit:4;stroke-dasharray:none;stroke-dashoffset:0;stroke-opacity:1;stop-color:#000000;stop-opacity:1"
       d="m 69.330448,43.256544 c 0,0 4.227682,-11.114717 9.75095,-11.046529 5.523262,0.06819 3.15402,4.192265 1.022824,4.773192 -3.353001,0.913972 -10.773774,6.273337 -10.773774,6.273337 z"
       id="path4602"
       sodipodi:nodetypes="cssc" />
    <path
       style="font-variation-settings:normal;opacity:1;vector-effect:none;fill:none;fill-opacity:1;stroke:#ffffff;stroke-width:0.136377px;stroke-linecap:butt;stroke-linejoin:miter;stroke-miterlimit:4;stroke-dasharray:none;stroke-dashoffset:0;stroke-opacity:1;-inkscape-stroke:none;stop-color:#000000;stop-opacity:1"
       d="m 82.302291,34.965593 c 1.999243,1.009493 1.313641,3.176817 -0.186507,3.722325 -1.500148,0.545508 -11.728415,4.841378 -12.785336,4.568626"
       id="path4878"
       sodipodi:nodetypes="csc" />
    <path
       style="font-variation-settings:normal;opacity:1;vector-effect:none;fill:none;fill-opacity:1;stroke:#ffffff;stroke-width:0.136377px;stroke-linecap:butt;stroke-linejoin:miter;stroke-miterlimit:4;stroke-dasharray:none;stroke-dashoffset:0;stroke-opacity:1;-inkscape-stroke:none;stop-color:#000000;stop-opacity:1"
       d="m 82.92453,38.166901 c 1.083482,0.657394 1.731271,3.640638 -0.0075,4.22024 -1.738802,0.579602 -13.092183,1.46605 -13.586546,0.869403"
       id="path5478" />
    <path
       style="font-variation-settings:normal;opacity:1;vector-effect:none;fill:none;fill-opacity:1;stroke:#ffffff;stroke-width:0.136377px;stroke-linecap:butt;stroke-linejoin:miter;stroke-miterlimit:4;stroke-dasharray:none;stroke-dashoffset:0;stroke-opacity:1;-inkscape-stroke:none;stop-color:#000000;stop-opacity:1"
       d="m 33.122384,41.190762 c -2.659349,-1.411829 -3.682176,-4.275744 -3.682176,-7.54879 0,-3.273045 -0.136377,-15.342401 11.251094,-14.865082 11.387474,0.47732 11.93298,9.614572 11.864792,12.955806 -0.06819,3.341234 -1.227392,9.458066 -3.818554,9.458066"
       id="path6865"
       sodipodi:nodetypes="csssc" />
    <path
       style="font-variation-settings:normal;opacity:1;vector-effect:none;fill:none;fill-opacity:1;stroke:#ffffff;stroke-width:0.136377px;stroke-linecap:butt;stroke-linejoin:miter;stroke-miterlimit:4;stroke-dasharray:none;stroke-dashoffset:0;stroke-opacity:1;-inkscape-stroke:none;stop-color:#000000;stop-opacity:1"
       d="m 36.975032,41.190762 c -2.147936,-1.139075 -3.579894,-5.400853 -2.488879,-7.105565 1.091016,-1.704711 5.386888,3.954931 7.125693,1.909277 1.738806,-2.045653 -1.29558,-4.739097 -0.477319,-6.13696 0.818262,-1.397864 3.068481,0 3.818554,-1.261487 0.750072,-1.261486 0.750072,-1.704711 0.750072,-1.704711"
       id="path7045"
       sodipodi:nodetypes="cssssc" />
    <path
       style="font-variation-settings:normal;opacity:1;vector-effect:none;fill:none;fill-opacity:1;stroke:#ffffff;stroke-width:0.136377px;stroke-linecap:butt;stroke-linejoin:miter;stroke-miterlimit:4;stroke-dasharray:none;stroke-dashoffset:0;stroke-opacity:1;-inkscape-stroke:none;stop-color:#000000;stop-opacity:1"
       d="m 52.556094,31.732696 v 9.458066"
       id="path7184" />
    <path
       style="font-variation-settings:normal;opacity:1;vector-effect:none;fill:none;fill-opacity:1;stroke:#ffffff;stroke-width:0.136377px;stroke-linecap:butt;stroke-linejoin:miter;stroke-miterlimit:4;stroke-dasharray:none;stroke-dashoffset:0;stroke-opacity:1;-inkscape-stroke:none;stop-color:#000000;stop-opacity:1"
       d="m 52.556094,31.732696 v -8.274647 c 0,-3.134073 0.715643,-3.760887 2.740741,-3.760887 2.025092,0 19.321118,0.192865 19.321118,0.192865 0,0 -3.278726,-0.144649 -3.37516,2.651909 -0.09643,2.796557 0,16.678013 0,16.678013"
       id="path7299"
       sodipodi:nodetypes="csscsc" />
    <path
       style="font-variation-settings:normal;opacity:1;vector-effect:none;fill:none;fill-opacity:1;stroke:#ffffff;stroke-width:0.136377px;stroke-linecap:butt;stroke-linejoin:miter;stroke-miterlimit:4;stroke-dasharray:none;stroke-dashoffset:0;stroke-opacity:1;-inkscape-stroke:none;stop-color:#000000;stop-opacity:1"
       d="m 57.002375,41.190762 c 0,0 -0.72325,-0.1819 -0.72325,-1.43553 0,-1.25363 0.09643,-12.295212 0.144653,-13.307759 0.04819,-1.012547 0.241081,-1.639361 1.639357,-1.639361 1.398282,0 6.364585,0.04821 7.569993,0.09643 1.205414,0.04822 2.700129,0.593726 2.700129,3.197416 0,2.603691 -5.025991,3.154974 -6.219931,3.340646 -2.157169,0.335466 -1.205414,6.973528 -1.205414,8.360841 0,1.387314 -1.253628,1.387314 -1.253628,1.387314"
       id="path7638"
       sodipodi:nodetypes="cscsssssc" />
    <path
       style="font-variation-settings:normal;opacity:1;vector-effect:none;fill:none;fill-opacity:1;stroke:#ffffff;stroke-width:0.136377px;stroke-linecap:butt;stroke-linejoin:miter;stroke-miterlimit:4;stroke-dasharray:none;stroke-dashoffset:0;stroke-opacity:1;-inkscape-stroke:none;stop-color:#000000;stop-opacity:1"
       d="m 15.036043,41.4083 h 13.350932 c 0,0 0.615716,-21.472206 -12.107137,-21.472206 -12.7228533,0 -12.5466753,21.342985 -12.5466753,21.342985 L 15.036043,41.4083"
       id="path7826"
       sodipodi:nodetypes="cczcc" />
    <path
       style="font-variation-settings:normal;opacity:1;vector-effect:none;fill:none;fill-opacity:1;stroke:#ffffff;stroke-width:0.136377px;stroke-linecap:butt;stroke-linejoin:miter;stroke-miterlimit:4;stroke-dasharray:none;stroke-dashoffset:0;stroke-opacity:1;-inkscape-stroke:none;stop-color:#000000;stop-opacity:1"
       d="m 9.6324842,41.346523 c 0,0 -0.7199391,-16.104462 6.3678878,-16.200896 7.087829,-0.09643 7.087829,16.262673 7.087829,16.262673"
       id="path7908" />
    <path
       style="font-variation-settings:normal;opacity:1;vector-effect:none;fill:none;fill-opacity:1;stroke:#ffffff;stroke-width:0.136377px;stroke-linecap:butt;stroke-linejoin:miter;stroke-miterlimit:4;stroke-dasharray:none;stroke-dashoffset:0;stroke-opacity:1;-inkscape-stroke:none;stop-color:#000000;stop-opacity:1"
       d="m 9.6324842,41.346523 c 0,0 0.0033,-11.28281 3.6195468,-11.42746 3.616239,-0.144649 3.519806,11.489237 3.519806,11.489237"
       id="path7910" />
    <path
       style="font-variation-settings:normal;opacity:1;vector-effect:none;fill:none;fill-opacity:1;stroke:#ffffff;stroke-width:0.136377px;stroke-linecap:butt;stroke-linejoin:miter;stroke-miterlimit:4;stroke-dasharray:none;stroke-dashoffset:0;stroke-opacity:1;-inkscape-stroke:none;stop-color:#000000;stop-opacity:1"
       d="m 16.771837,41.4083 c 0,0 -0.285154,-7.391626 2.651908,-7.390834 2.937063,8.25e-4 3.664456,7.390834 3.664456,7.390834"
       id="path7912" />
    <path
       style="font-variation-settings:normal;opacity:1;vector-effect:none;fill:none;fill-opacity:1;stroke:#ffffff;stroke-width:0.136377px;stroke-linecap:butt;stroke-linejoin:miter;stroke-miterlimit:4;stroke-dasharray:none;stroke-dashoffset:0;stroke-opacity:1;-inkscape-stroke:none;stop-color:#000000;stop-opacity:1"
       d="m 28.994612,41.225217 c 0,0 0,-18.902527 0,-20.879992 0,-1.977465 0.581973,-2.045654 2.286685,-2.045654 1.704711,0 40.503941,0 41.935895,0 1.431961,0 2.420694,0.852356 2.522972,2.488878 0.102284,1.636523 0,12.697211 0,12.697211"
       id="path8215" />
    <path
       id="rect1666"
       style="fill:none;fill-rule:evenodd;stroke:#ff0000;stroke-width:0.275738;stroke-linecap:square;stroke-linejoin:bevel"
       d="m 74.574754,10.048891 c -23.121954,-0.0065 -46.24473,-0.01163 -69.3662162,0.0097 -3.8569197,0.139376 -7.2055609,2.533156 -7.0544614,5.14572 -0.042545,6.943361 -0.0076,13.887656 -0.0195,20.831394 0.0038,16.760146 -0.00886,33.520822 0.021146,50.280636 0.2222365,2.587396 3.7744247,4.829464 7.6512242,4.727705 10.3242404,0.02866 20.6498754,0.0041 30.9746744,0.01335 14.712321,-0.0055 29.425883,0.01031 44.137419,-0.01887 3.809624,-0.19447 7.076541,-2.571098 6.91592,-5.158031 0.04278,-6.785142 0.0063,-13.571192 0.01948,-20.35671 -0.0026,-16.911977 0.0076,-33.824469 -0.02294,-50.736117 -0.218284,-2.600491 -3.81065,-4.8529888 -7.70562,-4.728597 -1.849941,-0.02948 -3.700959,-0.0176 -5.55123,-0.01026 z" />
    <circle
       style="fill:none;fill-rule:evenodd;stroke:#ff0000;stroke-width:0.110317;stroke-linecap:square;stroke-linejoin:bevel"
       id="path2295"
       cx="42.41256"
       cy="14.23889"
       r="1.4805444" />
    <circle
       style="fill:none;fill-rule:evenodd;stroke:#ff0000;stroke-width:0.110317;stroke-linecap:square;stroke-linejoin:bevel"
       id="path2295-9"
       cx="81.706696"
       cy="14.23889"
       r="1.4805444" />
    <circle
       style="fill:none;fill-rule:evenodd;stroke:#ff0000;stroke-width:0.110317;stroke-linecap:square;stroke-linejoin:bevel"
       id="path2295-9-4"
       cx="4.891336"
       cy="14.23889"
       r="1.4805444" />
  </g>
</svg>
