<?xml version="1.0" encoding="UTF-8" standalone="no"?>
<!-- Created with Inkscape (http://www.inkscape.org/) -->

<svg
   width="400"
   height="800"
   viewBox="0 0 105.83333 211.66667"
   version="1.1"
   id="svg17165"
   inkscape:version="1.1 (c68e22c387, 2021-05-23)"
   sodipodi:docname="sinia-pana-olin-li-pona-e-lon-pi-jan-ale.svg"
   xmlns:inkscape="http://www.inkscape.org/namespaces/inkscape"
   xmlns:sodipodi="http://sodipodi.sourceforge.net/DTD/sodipodi-0.dtd"
   xmlns="http://www.w3.org/2000/svg"
   xmlns:svg="http://www.w3.org/2000/svg">
  <sodipodi:namedview
     id="namedview17167"
     pagecolor="#000000"
     bordercolor="#999999"
     borderopacity="1"
     inkscape:pageshadow="0"
     inkscape:pageopacity="0"
     inkscape:pagecheckerboard="true"
     inkscape:document-units="mm"
     showgrid="false"
     units="px"
     inkscape:zoom="0.94867184"
     inkscape:cx="171.29211"
     inkscape:cy="476.98264"
     inkscape:window-width="1854"
     inkscape:window-height="1056"
     inkscape:window-x="58"
     inkscape:window-y="440"
     inkscape:window-maximized="1"
     inkscape:current-layer="layer1"
     inkscape:snap-page="true"
     inkscape:object-paths="true"
     inkscape:snap-smooth-nodes="false"
     inkscape:snap-global="true" />
  <defs
     id="defs17162" />
  <g
     inkscape:label="Layer 1"
     inkscape:groupmode="layer"
     id="layer1">
    <path
       style="font-variation-settings:normal;opacity:1;vector-effect:none;fill:none;fill-opacity:1;stroke:#ffffff;stroke-width:0.264583px;stroke-linecap:butt;stroke-linejoin:miter;stroke-miterlimit:4;stroke-dasharray:none;stroke-dashoffset:0;stroke-opacity:1;-inkscape-stroke:none;stop-color:#000000;stop-opacity:1"
       d="m 5.9524714,211.66666 c 0,-2.62284 1.6824321,-4.47001 3.2539822,-4.47001 H 89.396012 c 3.352588,0 2.563743,4.47001 2.563743,4.47001 z"
       id="path17263"
       sodipodi:nodetypes="csscc" />
    <path
       style="font-variation-settings:normal;opacity:1;vector-effect:none;fill:none;fill-opacity:1;stroke:#ffffff;stroke-width:0.264583px;stroke-linecap:butt;stroke-linejoin:miter;stroke-miterlimit:4;stroke-dasharray:none;stroke-dashoffset:0;stroke-opacity:1;-inkscape-stroke:none;stop-color:#000000;stop-opacity:1"
       d="m 47.555926,207.19665 c -1.952291,0 -1.743117,-2.06667 -1.743117,-2.06667 V 170.1282 c 0,-1.39449 1.446789,-1.44679 1.446789,-1.44679 h 27.469705"
       id="path17863"
       sodipodi:nodetypes="ccscc" />
    <circle
       style="fill:none;fill-rule:evenodd;stroke:#ffffff;stroke-width:0.264583;stroke-linecap:round;paint-order:stroke fill markers;stop-color:#000000"
       id="path17912"
       cx="79.23703"
       cy="172.25481"
       r="5.7522855" />
    <path
       style="font-variation-settings:normal;opacity:1;vector-effect:none;fill:none;fill-opacity:1;stroke:#ffffff;stroke-width:0.264583px;stroke-linecap:butt;stroke-linejoin:miter;stroke-miterlimit:4;stroke-dasharray:none;stroke-dashoffset:0;stroke-opacity:1;-inkscape-stroke:none;stop-color:#000000;stop-opacity:1"
       d="m 73.634442,170.95105 c 0,0 -25.8781,20.5129 -20.090953,26.78812 5.787149,6.27522 29.23005,-20.94764 29.23005,-20.94764"
       id="path18027" />
    <path
       style="font-variation-settings:normal;opacity:1;vector-effect:none;fill:none;fill-opacity:1;stroke:#ffffff;stroke-width:0.264583px;stroke-linecap:butt;stroke-linejoin:miter;stroke-miterlimit:4;stroke-dasharray:none;stroke-dashoffset:0;stroke-opacity:1;-inkscape-stroke:none;stop-color:#000000;stop-opacity:1"
       d="m 74.946764,176.08657 -17.91704,18.37554"
       id="path18029" />
    <path
       style="font-variation-settings:normal;opacity:1;vector-effect:none;fill:none;fill-opacity:1;stroke:#ffffff;stroke-width:0.264583px;stroke-linecap:butt;stroke-linejoin:miter;stroke-miterlimit:4;stroke-dasharray:none;stroke-dashoffset:0;stroke-opacity:1;-inkscape-stroke:none;stop-color:#000000;stop-opacity:1"
       d="m 84.630001,174.25597 v 31.66945 c 0,1.10931 -1.039395,1.27123 -1.039395,1.27123"
       id="path18092" />
    <path
       style="font-variation-settings:normal;opacity:1;vector-effect:none;fill:none;fill-opacity:1;stroke:#ffffff;stroke-width:0.264583px;stroke-linecap:butt;stroke-linejoin:miter;stroke-miterlimit:4;stroke-dasharray:none;stroke-dashoffset:0;stroke-opacity:1;-inkscape-stroke:none;stop-color:#000000;stop-opacity:1"
       d="m 43.716978,207.19665 c 1.824204,0 2.095831,-2.83659 2.095831,-2.83659"
       id="path18505" />
    <path
       style="font-variation-settings:normal;opacity:1;vector-effect:none;fill:none;fill-opacity:1;stroke:#ffffff;stroke-width:0.264583px;stroke-linecap:butt;stroke-linejoin:miter;stroke-miterlimit:4;stroke-dasharray:none;stroke-dashoffset:0;stroke-opacity:1;-inkscape-stroke:none;stop-color:#000000;stop-opacity:1"
       d="m 45.812809,185.67527 c 0,-1.74312 -1.642909,-1.64291 -1.642909,-1.64291 l -8.197028,-1.25722 c -1.447296,-0.22198 -1.324768,-1.39011 -1.324768,-1.39011 0,0 -1.464223,-10.76875 -5.996322,-10.76875 -4.532104,0 -3.799996,10.9082 -3.799996,10.9082 0,1.15046 -1.162419,1.06454 -1.162419,1.06454 l -8.657823,1.11353 c -1.383101,0.17789 -1.684328,0.83474 -1.684328,0.83474 v 21.06334 c 0,1.55137 1.307338,1.59602 1.307338,1.59602"
       id="path18518"
       sodipodi:nodetypes="ccscsccscsc" />
    <path
       style="font-variation-settings:normal;opacity:1;vector-effect:none;fill:none;fill-opacity:1;stroke:#ffffff;stroke-width:0.264583px;stroke-linecap:butt;stroke-linejoin:miter;stroke-miterlimit:4;stroke-dasharray:none;stroke-dashoffset:0;stroke-opacity:1;-inkscape-stroke:none;stop-color:#000000;stop-opacity:1"
       d="m 24.822807,180.86838 c 4.892178,-0.17366 5.902886,-4.3644 5.902886,-4.3644"
       id="path19524" />
    <circle
       style="fill:#ffffff;fill-rule:evenodd;stroke:none;stroke-width:0.264583;stroke-linecap:round;paint-order:stroke fill markers;stop-color:#000000"
       id="path19641"
       cx="27.693569"
       cy="175.56723"
       r="0.81349599" />
    <circle
       style="fill:#ffffff;fill-rule:evenodd;stroke:none;stroke-width:0.264583;stroke-linecap:round;paint-order:stroke fill markers;stop-color:#000000"
       id="path19641-5"
       cx="81.803375"
       cy="153.92329"
       r="0.81349599" />
    <circle
       style="fill:#ffffff;fill-rule:evenodd;stroke:none;stroke-width:0.264583;stroke-linecap:round;paint-order:stroke fill markers;stop-color:#000000"
       id="path19641-2"
       cx="82.29641"
       cy="159.05081"
       r="0.81349599" />
    <path
       style="font-variation-settings:normal;opacity:1;vector-effect:none;fill:none;fill-opacity:1;stroke:#ffffff;stroke-width:0.264583px;stroke-linecap:butt;stroke-linejoin:miter;stroke-miterlimit:4;stroke-dasharray:none;stroke-dashoffset:0;stroke-opacity:1;-inkscape-stroke:none;stop-color:#000000;stop-opacity:1"
       d="m 17.24843,183.41742 c 0,0 -12.7323797,-15.13269 11.475286,-14.93548 24.207668,0.19721 11.417568,14.93253 11.417568,14.93253"
       id="path19820"
       sodipodi:nodetypes="csc" />
    <path
       style="font-variation-settings:normal;opacity:1;vector-effect:none;fill:none;fill-opacity:1;stroke:#ffffff;stroke-width:0.264583px;stroke-linecap:butt;stroke-linejoin:miter;stroke-miterlimit:4;stroke-dasharray:none;stroke-dashoffset:0;stroke-opacity:1;-inkscape-stroke:none;stop-color:#000000;stop-opacity:1"
       d="m 16.773004,202.48655 c 1.133964,-2.12002 7.888447,-7.64193 7.888447,-7.64193"
       id="path20425" />
    <path
       style="font-variation-settings:normal;opacity:1;vector-effect:none;fill:none;fill-opacity:1;stroke:#ffffff;stroke-width:0.264583px;stroke-linecap:butt;stroke-linejoin:miter;stroke-miterlimit:4;stroke-dasharray:none;stroke-dashoffset:0;stroke-opacity:1;-inkscape-stroke:none;stop-color:#000000;stop-opacity:1"
       d="m 20.372108,204.01494 c 0.690237,-1.28187 6.754482,-6.21215 6.754482,-6.21215"
       id="path20427" />
    <path
       style="font-variation-settings:normal;opacity:1;vector-effect:none;fill:none;fill-opacity:1;stroke:#ffffff;stroke-width:0.264583px;stroke-linecap:butt;stroke-linejoin:miter;stroke-miterlimit:4;stroke-dasharray:none;stroke-dashoffset:0;stroke-opacity:1;-inkscape-stroke:none;stop-color:#000000;stop-opacity:1"
       d="m 16.378581,198.93675 c 1.331176,0.39442 6.507968,3.89492 7.000995,4.63446"
       id="path20429" />
    <path
       style="font-variation-settings:normal;opacity:1;vector-effect:none;fill:none;fill-opacity:1;stroke:#ffffff;stroke-width:0.264583px;stroke-linecap:butt;stroke-linejoin:miter;stroke-miterlimit:4;stroke-dasharray:none;stroke-dashoffset:0;stroke-opacity:1;-inkscape-stroke:none;stop-color:#000000;stop-opacity:1"
       d="m 18.597207,195.78137 c 1.331175,0.39442 6.754481,4.68377 7.641933,5.81773"
       id="path20431" />
    <path
       style="font-variation-settings:normal;opacity:1;vector-effect:none;fill:none;fill-opacity:1;stroke:#ffffff;stroke-width:0.264583px;stroke-linecap:butt;stroke-linejoin:miter;stroke-miterlimit:4;stroke-dasharray:none;stroke-dashoffset:0;stroke-opacity:1;-inkscape-stroke:none;stop-color:#000000;stop-opacity:1"
       d="m 10.807366,207.19665 v -37.10203 c 0,-3.5498 3.845618,-4.14143 3.845618,-4.14143 h 58.867528 c 3.451196,0 2.662351,-16.56574 8.381476,-16.56574 5.719122,0 4.364972,16.96016 4.364972,16.96016 v 40.84904"
       id="path20679"
       sodipodi:nodetypes="cscsscc" />
    <path
       style="font-variation-settings:normal;opacity:1;vector-effect:none;fill:none;fill-opacity:1;stroke:#ffffff;stroke-width:0.264583px;stroke-linecap:butt;stroke-linejoin:miter;stroke-miterlimit:4;stroke-dasharray:none;stroke-dashoffset:0;stroke-opacity:1;-inkscape-stroke:none;stop-color:#000000;stop-opacity:1"
       d="m 17.077486,165.95319 c -3.521096,0 -3.543233,-2.04569 -3.543233,-2.04569 v -17.9016 m 6.660541,-8.60707 H 74.87924 c 2.405499,0 2.26605,1.8762 2.26605,1.8762 v 17.19752"
       id="path20951"
       sodipodi:nodetypes="ccccscc" />
    <path
       style="font-variation-settings:normal;opacity:1;vector-effect:none;fill:none;fill-opacity:1;stroke:#ffffff;stroke-width:0.264583px;stroke-linecap:butt;stroke-linejoin:miter;stroke-miterlimit:4;stroke-dasharray:none;stroke-dashoffset:0;stroke-opacity:1;-inkscape-stroke:none;stop-color:#000000;stop-opacity:1"
       d="m 9.9560473,137.43171 c 1.5340747,-3.03917 10.6024587,1.71103 9.0982487,4.95722 -1.50421,3.24619 -10.3277711,-2.73691 -9.0982487,-4.95722 z"
       id="path21111" />
    <path
       style="font-variation-settings:normal;opacity:1;vector-effect:none;fill:none;fill-opacity:1;stroke:#ffffff;stroke-width:0.264583px;stroke-linecap:butt;stroke-linejoin:miter;stroke-miterlimit:4;stroke-dasharray:none;stroke-dashoffset:0;stroke-opacity:1;-inkscape-stroke:none;stop-color:#000000;stop-opacity:1"
       d="m 14.489556,137.01808 c -0.870051,-2.70957 1.291602,-2.5731 3.887311,-1.15428 2.595708,1.41882 8.485467,10.1333 8.485467,10.1333 0,0 -12.144531,1.10438 -14.865994,-0.49556 -2.7214604,-1.59993 -2.7700784,-4.03904 0.435201,-4.24972"
       id="path21170"
       sodipodi:nodetypes="cscsc" />
    <path
       style="font-variation-settings:normal;opacity:1;vector-effect:none;fill:none;fill-opacity:1;stroke:#ffffff;stroke-width:0.264583px;stroke-linecap:butt;stroke-linejoin:miter;stroke-miterlimit:4;stroke-dasharray:none;stroke-dashoffset:0;stroke-opacity:1;-inkscape-stroke:none;stop-color:#000000;stop-opacity:1"
       d="m 9.2064536,207.19665 v -72.60004 c 0,-4.38795 2.6855744,-4.04283 2.6855744,-4.04283 h 85.12293 c 2.810245,0 2.489775,1.70095 2.489775,1.70095 v 13.2871 c 0,2.63687 -3.081412,2.46514 -3.081412,2.46514 h -6.041255 c -2.107694,0 -2.021414,2.56375 -2.021414,2.56375 v 56.62593"
       id="path24163"
       sodipodi:nodetypes="cscscscscc" />
    <path
       style="font-variation-settings:normal;opacity:1;vector-effect:none;fill:none;fill-opacity:1;stroke:#ffffff;stroke-width:0.264583px;stroke-linecap:butt;stroke-linejoin:miter;stroke-miterlimit:4;stroke-dasharray:none;stroke-dashoffset:0;stroke-opacity:1;-inkscape-stroke:none;stop-color:#000000;stop-opacity:1"
       d="m 98.553609,147.46471 v 13.34447 c 0,1.38047 -1.441731,1.25722 -1.441731,1.25722 H 88.36065"
       id="path24779"
       sodipodi:nodetypes="cscc" />
    <path
       style="font-variation-settings:normal;opacity:1;vector-effect:none;fill:none;fill-opacity:1;stroke:#ffffff;stroke-width:0.264583px;stroke-linecap:butt;stroke-linejoin:miter;stroke-miterlimit:4;stroke-dasharray:none;stroke-dashoffset:0;stroke-opacity:1;-inkscape-stroke:none;stop-color:#000000;stop-opacity:1"
       d="m 98.423199,161.43253 v 11.8956 c 0,0.7277 -0.569704,0.76697 -0.569704,0.76697 H 88.36065"
       id="path24808"
       sodipodi:nodetypes="cscc" />
    <path
       style="font-variation-settings:normal;opacity:1;vector-effect:none;fill:none;fill-opacity:1;stroke:#ffffff;stroke-width:0.264583px;stroke-linecap:butt;stroke-linejoin:miter;stroke-miterlimit:4;stroke-dasharray:none;stroke-dashoffset:0;stroke-opacity:1;-inkscape-stroke:none;stop-color:#000000;stop-opacity:1"
       d="m 98.301232,173.81301 v 10.2836 c 0,0.75186 -0.770287,0.75187 -0.770287,0.75187 H 88.36065"
       id="path25530"
       sodipodi:nodetypes="cscc" />
    <path
       style="font-variation-settings:normal;opacity:1;vector-effect:none;fill:none;fill-opacity:1;stroke:#ffffff;stroke-width:0.312255px;stroke-linecap:butt;stroke-linejoin:miter;stroke-miterlimit:4;stroke-dasharray:none;stroke-dashoffset:0;stroke-opacity:1;-inkscape-stroke:none;stop-color:#000000;stop-opacity:1"
       d="m 88.952503,130.55378 c 1.920131,0 2.443808,-1.04735 2.327428,-18.96865 C 91.163571,93.663834 86.047056,96.208934 80.340974,96.107639 66.378037,95.859778 66.72544,104.95193 66.72544,104.95193 c 0,0 1.047348,-7.447822 -3.95665,-7.564188 -5.004,-0.116365 -4.422141,6.982318 -4.422141,6.982318 0,0 0.349118,-6.865952 -5.004,-6.865952 -5.353116,0 -3.701652,17.783462 -3.701652,17.783462"
       id="path26053"
       sodipodi:nodetypes="csscscsc" />
    <path
       style="font-variation-settings:normal;opacity:1;vector-effect:none;fill:none;fill-opacity:1;stroke:#ffffff;stroke-width:0.312255px;stroke-linecap:butt;stroke-linejoin:miter;stroke-miterlimit:4;stroke-dasharray:none;stroke-dashoffset:0;stroke-opacity:1;-inkscape-stroke:none;stop-color:#000000;stop-opacity:1"
       d="m 51.686327,130.55378 c -1.571024,0 -3.837571,1.04556 -4.014838,-6.80776 -0.256149,-11.34806 6.586825,-14.45688 20.830606,-11.15223"
       id="path26086"
       sodipodi:nodetypes="csc" />
    <path
       style="font-variation-settings:normal;opacity:1;vector-effect:none;fill:none;fill-opacity:1;stroke:#ffffff;stroke-width:0.312255px;stroke-linecap:butt;stroke-linejoin:miter;stroke-miterlimit:4;stroke-dasharray:none;stroke-dashoffset:0;stroke-opacity:1;-inkscape-stroke:none;stop-color:#000000;stop-opacity:1"
       d="m 53.633579,121.60867 c -0.814602,-3.78209 10.880793,-2.15288 15.30293,-2.85111 4.422142,-0.69824 15.244747,-6.80778 16.757587,-1.33829 1.51283,5.46949 -11.288099,8.3206 -15.535679,8.7861 -4.247581,0.46548 -15.477487,-0.11637 -16.524838,-4.5967 z"
       id="path26846"
       sodipodi:nodetypes="csssc" />
    <path
       style="font-variation-settings:normal;opacity:1;vector-effect:none;fill:none;fill-opacity:1;stroke:#ffffff;stroke-width:0.312255px;stroke-linecap:butt;stroke-linejoin:miter;stroke-miterlimit:4;stroke-dasharray:none;stroke-dashoffset:0;stroke-opacity:1;-inkscape-stroke:none;stop-color:#000000;stop-opacity:1"
       d="m 57.357487,122.11681 c 7.011676,2.20863 23.034867,-0.80537 25.078186,-3.60754"
       id="path27921"
       sodipodi:nodetypes="cc" />
    <path
       style="font-variation-settings:normal;opacity:1;vector-effect:none;fill:none;fill-opacity:1;stroke:#ffffff;stroke-width:0.264583px;stroke-linecap:butt;stroke-linejoin:miter;stroke-miterlimit:4;stroke-dasharray:none;stroke-dashoffset:0;stroke-opacity:1;-inkscape-stroke:none;stop-color:#000000;stop-opacity:1"
       d="m 48.076335,130.55378 c -1.987153,0 -2.161466,-1.63286 -2.161466,-1.63286 V 96.917294 c 0,-2.231188 1.255043,-1.882565 1.255043,-1.882565 l 43.676276,-0.488075 c 1.812843,-0.06972 1.603668,1.882566 1.603668,1.882566 l 0.21789,32.9972 c 0.03486,1.02844 -0.90642,1.12736 -0.90642,1.12736"
       id="path28613"
       sodipodi:nodetypes="ccsccccc" />
    <text
       xml:space="preserve"
       style="font-size:9.87778px;line-height:1.25;font-family:sans-serif;fill:#ffffff;stroke-width:0.264583"
       x="15.96189"
       y="111.83836"
       id="text29872"><tspan
         sodipodi:role="line"
         id="tspan29870"
         style="font-size:9.87778px;fill:#ffffff;stroke-width:0.264583"
         x="15.96189"
         y="111.83836">pana</tspan></text>
    <text
       xml:space="preserve"
       style="font-size:9.87778px;line-height:1.25;font-family:sans-serif;fill:#ffffff;stroke-width:0.264583"
       x="16.079132"
       y="82.097733"
       id="text29872-3"><tspan
         sodipodi:role="line"
         id="tspan29870-0"
         style="font-size:9.87778px;fill:#ffffff;stroke-width:0.264583"
         x="16.079132"
         y="82.097733">sina</tspan></text>
    <text
       xml:space="preserve"
       style="font-size:9.87778px;line-height:1.25;font-family:sans-serif;fill:#ffffff;stroke-width:0.264583"
       x="63.556526"
       y="81.631813"
       id="text29872-3-3"><tspan
         sodipodi:role="line"
         id="tspan29870-0-3"
         style="font-size:9.87778px;fill:#ffffff;stroke-width:0.264583"
         x="63.556526"
         y="81.631813">olin</tspan></text>
  </g>
</svg>
